<svg width="1772" height="1588" viewBox="0 0 1772 1588" fill="none" xmlns="http://www.w3.org/2000/svg">
<path d="M1749.38 36.0601L22.5394 36.0596C10.3124 36.0596 0.4004 45.7463 0.400412 57.6956L0.401923 1565C0.401935 1576.95 10.3139 1586.64 22.5409 1586.64L1749.38 1586.64C1761.61 1586.64 1771.52 1576.95 1771.52 1565L1771.52 57.6961C1771.52 45.7469 1761.61 36.0601 1749.38 36.0601Z" fill="#F1F8E9" stroke="#AED581" stroke-width="0.8"/>
<path d="M133.235 346.176L1638.69 346.176" stroke="#F48FB1" stroke-width="0.8"/>
<path d="M133.235 504.84L1638.69 504.84" stroke="#F48FB1" stroke-width="0.8"/>
<path d="M133.235 663.504L1638.69 663.504" stroke="#F48FB1" stroke-width="0.8"/>
<path d="M133.235 822.168L1638.69 822.168" stroke="#F48FB1" stroke-width="0.8"/>
<path d="M133.235 980.832L1638.69 980.832" stroke="#F48FB1" stroke-width="0.8"/>
<path d="M133.235 1139.5L1638.69 1139.5" stroke="#F48FB1" stroke-width="0.8"/>
<path d="M133.235 1298.16L1638.69 1298.16" stroke="#F48FB1" stroke-width="0.8"/>
<path d="M243.931 180.3L243.932 1550.58" stroke="#80DEEA"/>
<path d="M885.961 187.512C938.945 187.512 981.897 145.536 981.897 93.7561C981.897 41.976 938.945 4.52134e-05 885.961 2.9127e-05C832.977 1.30406e-05 790.025 41.976 790.025 93.756C790.026 145.536 832.977 187.512 885.961 187.512Z" fill="#D32F2F"/>
<path d="M885.961 137.028C910.415 137.028 930.239 117.654 930.239 93.7559C930.239 69.8574 910.415 50.4839 885.961 50.4839C861.507 50.4839 841.683 69.8574 841.683 93.7559C841.683 117.654 861.507 137.028 885.961 137.028Z" fill="#EF9A9A"/>
<path d="M885.961 137.027L885.961 237.995" stroke="#8B1A1A" stroke-width="3" stroke-linecap="round"/>
</svg>
