<svg width="1708" height="1588" viewBox="0 0 1708 1588" fill="none" xmlns="http://www.w3.org/2000/svg">
<path d="M1686.16 36.0604L21.7387 36.0601C9.95361 36.0601 0.399909 45.7468 0.399917 57.6961L0.400932 1565C0.40094 1576.95 9.95465 1586.64 21.7397 1586.64L1686.17 1586.64C1697.95 1586.64 1707.5 1576.95 1707.5 1565L1707.5 57.6964C1707.5 45.7472 1697.95 36.0604 1686.16 36.0604Z" fill="#E2FAFE" stroke="#B39DDB" stroke-width="0.8"/>
<path d="M128.433 324.54L1579.47 324.54" stroke="black" stroke-width="0.8"/>
<path d="M128.433 483.204L1579.47 483.204" stroke="black" stroke-width="0.8"/>
<path d="M128.433 641.868L1579.47 641.868" stroke="black" stroke-width="0.8"/>
<path d="M128.434 800.532L1579.47 800.532" stroke="black" stroke-width="0.8"/>
<path d="M128.434 959.195L1579.47 959.195" stroke="black" stroke-width="0.8"/>
<path d="M128.434 1117.86L1579.47 1117.86" stroke="black" stroke-width="0.8"/>
<path d="M128.434 1276.52L1579.47 1276.52" stroke="black" stroke-width="0.8"/>
<path d="M228.014 165.876L228.015 1536.16" stroke="#CE93D8"/>
<path d="M853.952 187.512C905.021 187.512 946.42 145.536 946.42 93.756C946.42 41.976 905.021 3.08234e-05 853.952 1.98568e-05C802.883 8.89019e-06 761.484 41.976 761.484 93.756C761.484 145.536 802.883 187.512 853.952 187.512Z" fill="#D32F2F"/>
<path d="M853.952 137.028C877.522 137.028 896.629 117.655 896.629 93.7564C896.629 69.8579 877.522 50.4844 853.952 50.4844C830.381 50.4844 811.274 69.8579 811.274 93.7564C811.274 117.655 830.381 137.028 853.952 137.028Z" fill="#EF9A9A"/>
<path d="M853.952 137.028L853.952 237.996" stroke="#8B1A1A" stroke-width="3" stroke-linecap="round"/>
</svg>
