<svg width="282" height="279" viewBox="0 0 282 279" fill="none" xmlns="http://www.w3.org/2000/svg">
<path d="M52.0033 2.21772C50.3841 4.21065 50.5086 4.33521 52.5016 2.71595C53.6226 1.84404 54.6191 0.847578 54.6191 0.598461C54.6191 -0.398004 53.6226 0.224787 52.0033 2.21772Z" fill="black"/>
<path d="M214.054 1.96861C215.299 3.46331 215.299 3.83698 213.929 3.83698C212.559 3.83698 212.559 4.21066 214.054 5.20712C215.424 6.20359 214.427 6.32815 210.317 5.70535C203.964 4.958 108.304 4.70889 85.385 5.45624C75.9186 5.82991 71.1854 5.5808 72.3064 4.83345C73.4274 3.96154 73.1783 3.83698 71.4345 4.45977C70.0643 4.958 67.0749 5.5808 64.8329 5.95447C62.5908 6.32815 60.4733 7.20005 60.0997 7.69829C59.726 8.32108 57.9822 8.44564 56.1138 8.07196C53.4981 7.57373 53.1244 7.69829 54.6191 8.69475C56.1138 9.81578 55.8647 10.0649 53.1244 10.0649C51.256 10.0649 49.3877 10.5631 49.014 11.3105C48.5158 12.0578 49.1385 12.1824 50.5087 11.6841C51.7543 11.3105 52.3771 11.3105 51.8788 11.8087C51.5052 12.3069 49.7613 12.9297 48.1421 13.1788C46.6474 13.428 43.9071 14.0508 42.1633 14.549C39.1739 15.2963 39.2984 15.1718 43.1598 11.435C48.0175 6.82638 46.8965 6.32815 41.7896 10.8122C39.7967 12.4315 38.0529 14.7981 37.9283 16.0437C37.6792 17.1647 36.4336 18.784 34.9389 19.5313C33.4442 20.2787 27.0917 25.8838 20.7393 32.1117C7.5361 44.8166 -0.43563 53.7848 9.65359 44.3184C17.7499 36.7204 16.2552 40.208 6.78875 50.92C-2.17944 61.1338 -2.304 62.753 6.66419 53.0375L13.5149 45.564L12.7675 52.4147C12.2693 56.1514 11.1483 60.8847 10.1518 63.0021C9.15535 65.2442 8.90624 66.8635 9.65359 67.1126C10.2764 67.3617 10.5255 68.3581 10.1518 69.3546C9.52903 70.9739 9.15535 70.9739 8.28345 69.6037C7.41154 68.3581 7.28698 68.6073 7.78521 70.2265C8.15889 71.4721 7.5361 73.9633 6.29052 75.8316C4.79582 78.0737 4.67126 78.821 5.91684 78.0737C7.41154 77.2018 7.5361 77.7 6.91331 81.1876C6.41507 83.5543 6.41507 84.7998 7.03787 84.177C8.78168 81.8104 11.3974 82.0596 10.5255 84.4262C8.78168 88.6611 8.15889 93.5189 9.27991 93.5189C9.9027 93.5189 10.5255 101.74 10.7746 111.954C10.8992 124.409 10.6501 129.641 9.77815 128.395C8.78168 126.901 8.53256 127.025 8.53256 129.267C8.53256 130.762 9.27991 132.257 10.1518 132.63C11.2728 133.253 11.2728 133.502 10.1518 134.125C9.27991 134.499 8.53256 136.616 8.65712 138.734C8.78168 142.595 8.78168 142.595 9.77815 139.605C10.7746 136.616 10.7746 136.741 10.8992 140.477C11.0237 142.719 10.4009 144.588 9.65359 144.588C8.78168 144.588 8.53256 146.954 9.0308 151.688C9.40447 155.673 10.0273 169.001 10.4009 181.332C10.8992 193.664 11.3974 204.625 11.6465 205.621C12.0202 206.618 11.3974 209.732 10.5255 212.472C9.27991 215.835 9.15535 217.953 10.0273 218.949C10.6501 219.821 10.8992 221.565 10.5255 222.81C10.0273 224.305 10.4009 225.551 11.3974 225.924C12.3939 226.298 13.6395 228.789 14.0131 231.405C14.5114 234.021 16.2552 238.505 17.8744 241.494C19.4937 244.359 20.3656 246.476 19.7428 246.103C19.2446 245.729 18.4972 246.103 18.2481 246.85C17.999 247.722 16.1306 246.85 13.764 244.857C11.522 242.989 9.77815 241.992 9.9027 242.615C9.9027 243.113 13.2658 246.352 17.3762 249.84C28.8356 259.555 37.181 267.527 37.181 269.021C37.181 269.769 38.1774 270.392 39.423 270.392C40.6686 270.392 42.6615 271.139 44.0317 272.011C45.4018 272.883 48.7649 274.253 51.5052 275.125C65.4557 279.111 70.1889 279.484 95.5988 278.612C130.101 277.491 159.995 277.367 166.472 278.488C169.337 278.986 172.7 278.986 173.946 278.363C178.43 276.37 184.533 275.748 206.58 275.249C215.175 275 222.897 275.249 223.769 275.872C224.766 276.495 227.257 275.623 230.246 273.63C232.987 271.886 235.851 270.392 236.599 270.392C237.471 270.392 241.083 267.9 244.695 264.786C248.183 261.673 251.795 259.181 252.542 259.181C253.29 259.181 255.282 257.064 257.026 254.573C258.77 251.957 260.14 250.462 260.14 251.21C260.14 251.832 259.517 253.078 258.646 253.95C257.898 254.697 257.524 255.694 257.898 256.067C258.272 256.566 261.012 252.455 264.002 247.099C266.866 241.743 271.226 234.27 273.593 230.533C277.454 224.305 277.578 223.931 274.589 226.672C272.845 228.415 271.35 230.408 271.35 231.405C271.35 232.277 270.852 233.024 270.229 233.024C269.482 233.024 269.856 230.533 270.977 227.419C271.973 224.305 272.596 220.568 272.222 219.074C271.849 217.579 271.973 215.337 272.721 214.091C273.468 212.597 273.468 211.849 272.596 211.849C271.849 211.849 271.35 206.493 271.35 197.276C271.35 189.304 271.6 183.076 271.849 183.325C272.098 183.575 272.721 187.436 273.094 191.795C273.593 196.279 274.215 200.141 274.589 200.514C274.963 200.888 274.963 198.397 274.589 195.034C272.97 182.204 272.222 90.9032 273.717 89.4085C275.336 87.7892 275.585 85.5472 273.966 86.5437C273.343 86.9173 272.222 86.4191 271.35 85.4226C270.105 83.9279 269.98 79.5684 270.603 67.8599C271.101 58.518 270.977 52.5393 270.229 52.9129C269.607 53.2866 268.735 52.7884 268.361 51.6673C266.991 48.3043 267.489 47.0587 269.482 48.6779C271.849 50.5463 271.849 49.9235 269.731 45.6885C268.735 43.9447 267.738 42.8237 267.365 43.0728C266.991 43.4465 265.745 41.4536 264.5 38.7133C263.254 35.973 261.759 34.1046 261.261 34.4783C260.638 34.852 260.14 34.4783 260.14 33.731C260.14 32.8591 261.137 32.6099 263.005 33.2327C265.745 34.1046 265.745 33.9801 263.379 31.4889C262.133 29.9942 260.514 29.1223 259.767 29.6205C259.144 29.9942 258.895 29.7451 259.393 28.9977C260.14 27.7522 258.646 26.2575 247.311 18.0366C243.699 15.4209 241.706 13.0543 242.204 12.1824C242.702 11.3105 242.577 11.0614 242.079 11.6841C241.456 12.1824 239.837 11.5596 238.467 10.4386C235.976 8.32108 235.976 8.32108 237.72 10.6877C239.464 12.9297 239.214 12.9297 234.855 10.314C232.239 8.81931 229.499 7.82284 228.876 8.19652C228.253 8.69475 227.755 8.32108 227.755 7.69829C227.755 6.95094 226.759 6.32815 225.388 6.32815C224.143 6.32815 221.652 4.958 219.783 3.21419C216.047 -0.273441 211.313 -1.26991 214.054 1.96861ZM71.1854 8.44564C70.3135 8.69475 68.5696 8.69475 67.4486 8.44564C66.203 8.07196 66.9504 7.82284 68.9433 7.82284C71.0608 7.82284 71.9327 8.07196 71.1854 8.44564ZM151.775 8.81931C151.775 9.4421 150.28 10.9368 148.536 12.1824C146.792 13.428 143.429 16.2928 140.938 18.4103C138.447 20.6523 135.956 22.5207 135.457 22.5207C133.34 22.5207 137.077 18.1612 142.682 14.0508C145.671 11.6841 147.913 9.56666 147.54 9.19298C146.668 8.19652 138.198 14.0508 133.714 18.784C131.721 20.9015 128.98 22.5207 127.61 22.3962C126.116 22.3962 125.742 22.0225 126.614 21.6488C127.361 21.3997 127.859 20.6523 127.486 20.0296C126.489 18.5349 137.824 9.81578 142.184 8.81931C147.913 7.44917 151.775 7.44917 151.775 8.81931ZM158.002 9.4421C157.131 10.4386 153.643 13.3034 150.031 15.67L143.678 20.1541L150.404 13.8016C156.757 7.9474 161.49 5.20712 158.002 9.4421ZM186.651 8.81931C186.651 10.1895 168.092 23.0189 167.22 22.147C166.971 21.8979 169.835 19.1576 173.572 16.1682C177.309 13.1788 179.925 10.5631 179.177 10.314C178.43 10.0649 175.939 11.435 173.572 13.428C164.604 20.7769 161.615 22.6453 160.12 22.147C159.248 21.8979 159.622 21.1506 161.366 20.2787C162.86 19.4068 165.974 17.0402 168.216 15.0472C170.458 12.9297 172.7 11.3105 173.199 11.3105C173.821 11.3105 174.195 10.6877 174.195 9.94033C174.195 9.19298 171.33 10.5631 167.967 13.0543C164.479 15.5455 161.116 17.5384 160.494 17.5384C158.127 17.5384 159.248 15.1718 163.109 12.5561C165.102 11.0614 166.597 9.56666 166.223 9.19298C165.85 8.81931 163.358 10.314 160.743 12.4315C158.002 14.549 155.138 16.2928 154.266 16.2928C153.394 16.2928 154.266 15.0472 156.259 13.5525C158.252 11.9333 160.618 10.0649 161.49 9.19298C163.483 7.20005 186.651 6.95094 186.651 8.81931ZM197.238 8.69475C197.612 9.31754 196.865 10.1895 195.494 10.6877C194.124 11.0614 192.381 12.1824 191.509 13.3034C190.263 14.9227 190.512 14.9227 193.377 13.9262C195.619 13.0543 196.616 13.0543 196.616 13.9262C196.616 14.6735 197.238 14.7981 197.861 14.4244C200.228 12.9297 211.812 12.4315 210.94 13.8016C210.566 14.4244 210.691 15.0472 211.313 15.0472C212.061 15.0472 212.808 14.2999 213.182 13.3034C213.68 12.1824 215.05 11.6841 216.794 12.0578L219.659 12.6806L216.669 11.3105C215.05 10.5631 211.438 10.1895 208.573 10.5631C205.833 10.8122 202.345 10.5631 200.975 9.94033C197.114 8.44564 212.933 8.57019 220.157 10.1895C226.759 11.5596 229.997 13.8016 224.641 13.1788C221.527 12.9297 220.282 15.4209 222.773 16.9156C224.89 18.1612 224.143 21.2751 221.901 21.2751C220.655 21.2751 217.79 22.3962 215.548 23.7663C211.313 26.382 205.833 27.1294 207.203 25.0119C207.577 24.2645 209.32 23.7663 211.064 23.7663C212.684 23.7663 213.929 23.1435 213.805 22.2716C213.555 21.5243 215.05 20.0296 216.918 19.0331C218.911 18.1612 220.157 17.0402 219.783 16.6665C219.534 16.2928 216.047 17.7875 212.185 20.0296C206.58 23.2681 204.587 23.7663 202.47 22.8944C199.854 21.7734 199.979 21.5243 204.712 19.0331C207.452 17.5384 209.196 16.4174 208.698 16.2928C206.954 16.2928 197.363 21.5243 194.498 24.14C192.131 26.2575 191.259 26.382 188.893 25.261C186.277 23.8909 186.277 23.7663 188.519 24.14C191.259 24.3891 204.836 15.4209 203.591 14.1753C203.217 13.8016 201.224 14.9227 199.107 16.791C194.872 20.2787 193.502 20.6523 192.381 18.9085C192.007 18.2857 190.388 18.0366 188.768 18.2857C187.274 18.5349 186.775 18.5349 187.647 18.0366C188.395 17.6629 189.142 16.791 189.142 16.1682C189.142 15.4209 188.146 15.4209 186.775 16.2928C185.405 16.9156 183.288 17.5384 182.042 17.5384C180.423 17.5384 181.295 16.1682 185.281 12.5561C190.388 7.82284 195.619 6.20359 197.238 8.69475ZM96.097 15.67C87.8762 23.6417 84.1394 25.5101 89.8691 18.784C94.3532 13.428 100.706 8.44564 101.702 9.4421C101.951 9.69122 99.4601 12.5561 96.097 15.67ZM107.556 10.0649C108.055 10.8122 109.549 11.0614 111.044 10.6877C113.161 10.0649 113.411 10.1895 111.916 11.1859C110.919 11.9333 110.048 13.0543 110.048 13.6771C110.048 14.9227 104.069 20.0296 102.449 20.0296C101.951 20.0296 103.072 18.6594 104.941 16.9156C108.179 13.9262 109.176 11.3105 107.058 11.3105C106.435 11.3105 105.314 12.1824 104.442 13.1788C101.827 16.2928 100.457 15.2963 102.823 11.9333C105.314 8.57019 106.435 8.19652 107.556 10.0649ZM118.393 11.3105C116.774 12.6806 116.151 13.9262 116.898 14.4244C117.646 14.9227 119.888 13.8016 122.005 11.9333C124.247 10.1895 126.24 9.06843 126.738 9.4421C127.112 9.94033 126.489 10.8122 125.368 11.435C124.247 12.0578 120.884 14.7981 118.019 17.5384C115.03 20.2787 112.165 22.5207 111.542 22.5207C111.044 22.5207 112.04 21.1506 113.909 19.6559C115.902 17.9121 116.898 16.0437 116.4 15.2963C115.154 13.3034 113.037 13.428 113.784 15.2963C114.158 16.1682 112.539 18.1612 110.297 19.6559C104.816 23.5172 103.197 23.2681 107.681 19.4068C109.674 17.6629 111.791 16.2928 112.29 16.2928C112.912 16.2928 113.037 15.7946 112.663 15.1718C112.165 14.549 113.411 12.8052 115.279 11.435C119.639 8.19652 122.254 8.07196 118.393 11.3105ZM133.838 11.1859C132.593 12.5561 130.226 13.9262 128.607 14.2999C126.863 14.7981 125.866 15.67 126.24 16.2928C127.112 17.6629 119.888 22.8944 117.895 22.2716C117.147 22.0225 117.895 20.9015 119.514 19.7804C121.133 18.784 124.621 15.7946 127.237 13.3034C132.343 8.44564 137.949 6.70182 133.838 11.1859ZM74.5484 10.4386C74.5484 10.6877 73.0537 12.1824 71.1854 13.9262L67.6977 16.9156L70.6871 13.428C73.552 10.314 74.5484 9.4421 74.5484 10.4386ZM78.2852 11.3105C78.2852 11.9333 77.7869 12.5561 77.0396 12.5561C76.4168 12.5561 75.794 11.9333 75.794 11.3105C75.794 10.5631 76.4168 10.0649 77.0396 10.0649C77.7869 10.0649 78.2852 10.5631 78.2852 11.3105ZM82.6447 11.3105C82.271 11.9333 81.2746 12.5561 80.6518 12.5561C79.9044 12.5561 79.7799 11.9333 80.1536 11.3105C80.5272 10.5631 81.5237 10.0649 82.1465 10.0649C82.8938 10.0649 83.0184 10.5631 82.6447 11.3105ZM87.0043 13.1788C85.385 14.9227 83.7657 16.0437 83.5166 15.67C82.6447 14.7981 87.1288 10.0649 88.6235 10.0649C89.3709 10.0649 88.6235 11.435 87.0043 13.1788ZM66.3276 15.1718C64.3347 17.2893 61.5944 19.5313 60.2242 20.2787C58.8541 20.9015 60.0997 19.1576 62.9645 16.4174C69.0679 10.4386 71.6836 9.56666 66.3276 15.1718ZM62.0926 12.9297C62.0926 13.0543 59.2278 16.0437 55.6156 19.4068L49.2631 25.6347L54.6191 19.0331C59.1032 13.6771 62.0926 11.1859 62.0926 12.9297ZM90.741 14.1753C90.741 14.4244 89.4954 15.67 88.0007 17.0402L85.1359 19.4068L87.5025 16.5419C89.7445 13.9262 90.741 13.1788 90.741 14.1753ZM53.9963 16.2928C53.6226 16.9156 52.6262 17.5384 52.0034 17.5384C51.256 17.5384 51.1315 16.9156 51.5052 16.2928C51.8788 15.5455 52.8753 15.0472 53.4981 15.0472C54.2454 15.0472 54.37 15.5455 53.9963 16.2928ZM231.492 16.1682C231.492 16.791 232.488 17.5384 233.734 17.7875C235.353 18.2857 236.35 20.6523 237.471 26.8803C238.343 31.4889 238.841 35.4748 238.592 35.7239C238.343 36.0976 237.097 32.8591 235.976 28.6241C234.606 23.8909 233.236 21.2751 232.364 21.6488C226.759 24.0154 226.509 24.0154 226.509 21.8979C226.509 20.7769 227.008 20.1541 227.631 20.5278C228.253 20.9015 229.125 20.4032 229.499 19.2822C230.62 16.2928 230.495 16.0437 227.88 17.4138C225.638 18.6594 224.018 18.1612 224.018 16.0437C224.018 15.5455 225.762 15.0472 227.755 15.0472C229.873 15.0472 231.492 15.5455 231.492 16.1682ZM98.8373 18.784C98.4636 19.4068 96.8444 20.6523 95.3497 21.3997C92.6094 22.8944 92.6094 22.8944 94.976 20.1541C97.3426 17.5384 100.332 16.4174 98.8373 18.784ZM150.654 20.0296C149.034 21.3997 147.166 22.5207 146.543 22.5207C145.796 22.5207 146.543 21.3997 148.162 20.0296C149.782 18.784 151.775 17.6629 152.397 17.6629C153.145 17.6629 152.273 18.784 150.654 20.0296ZM159.248 18.784C159.248 20.1541 155.138 22.5207 152.771 22.5207C151.899 22.5207 152.522 21.3997 154.266 20.0296C157.753 17.2893 159.248 16.9156 159.248 18.784ZM178.056 21.2751C174.32 24.5136 171.953 24.5136 174.818 21.2751C176.063 19.905 177.932 18.784 179.053 18.784C180.547 18.9085 180.298 19.4068 178.056 21.2751ZM184.907 21.8979C181.669 24.2645 179.676 24.2645 181.669 21.8979C182.54 20.9015 184.16 20.0296 185.281 20.0296C186.9 20.1541 186.9 20.4032 184.907 21.8979ZM191.259 22.0225C190.886 22.3962 189.765 22.5207 188.893 22.147C187.896 21.7734 188.27 21.3997 189.64 21.3997C191.01 21.2751 191.758 21.6488 191.259 22.0225ZM225.887 24.7628C225.638 25.1364 224.392 24.8873 223.146 24.5136C221.278 23.7663 221.278 23.3926 222.773 22.5207C224.392 21.5243 227.132 23.5172 225.887 24.7628ZM241.456 23.6417C242.951 26.6311 243.076 33.731 241.581 33.731C240.709 33.731 237.72 24.6382 237.72 22.0225C237.72 20.2787 240.211 21.5243 241.456 23.6417ZM235.976 33.2327C236.474 35.3502 236.35 36.4712 235.727 35.8484C235.104 35.2257 234.606 34.1046 234.606 33.3573C234.606 32.4854 233.858 31.8626 232.987 31.8626C231.99 31.8626 230.495 30.4924 229.623 28.7486C228.253 26.1329 228.253 25.5101 230.122 24.14C231.865 22.8944 232.364 23.1435 233.609 26.1329C234.481 28.1258 235.478 31.2398 235.976 33.2327ZM201.224 24.5136C200.85 24.8873 199.729 25.0119 198.858 24.6382C197.861 24.2645 198.235 23.8909 199.605 23.8909C200.975 23.7663 201.722 24.14 201.224 24.5136ZM172.576 25.7592C172.202 26.1329 171.081 26.2575 170.209 25.8838C169.213 25.5101 169.586 25.1364 170.957 25.1364C172.327 25.0119 173.074 25.3856 172.576 25.7592ZM221.527 27.0048C221.527 28.1258 220.904 28.7486 220.032 28.4995C217.79 27.7522 217.417 25.0119 219.534 25.0119C220.655 25.0119 221.527 25.8838 221.527 27.0048ZM226.509 28.8732C226.509 29.496 225.638 29.9942 224.641 29.9942C223.52 29.9942 223.146 29.2469 223.52 28.1258C224.267 26.2575 226.509 26.7557 226.509 28.8732ZM246.688 31.6135C246.065 34.1046 246.19 34.1046 248.058 32.6099C249.802 31.2398 250.176 31.2398 250.176 32.6099C250.176 33.6064 249.055 35.1011 247.684 35.973C245.691 37.2186 245.193 37.2186 245.193 35.7239C245.193 34.852 244.82 32.1117 244.321 29.8697C243.574 26.1329 243.699 25.8838 245.442 27.2539C246.688 28.2504 247.186 29.8697 246.688 31.6135ZM48.8894 29.3714C48.3912 30.3679 47.5193 31.2398 46.8965 31.2398C46.1492 31.2398 46.2737 30.4924 47.1456 29.3714C48.0175 28.375 48.8894 27.503 49.1385 27.503C49.3877 27.503 49.2631 28.375 48.8894 29.3714ZM204.089 28.8732C204.089 29.3714 206.082 29.9942 208.449 30.3679C213.68 31.2398 227.008 39.2115 230.495 43.5711C231.865 45.3149 233.36 46.685 233.734 46.5605C236.1 45.9377 245.193 59.1408 243.574 60.7601C243.2 61.0092 242.577 60.1373 242.079 58.7672C241.706 57.2725 239.588 54.2831 237.471 52.041C233.609 48.0552 233.609 48.0552 235.851 51.6673C237.097 53.6603 239.214 57.2725 240.585 59.7636C242.079 62.2548 244.072 64.8705 245.193 65.7424C246.812 66.988 247.062 71.8458 246.937 99.9959C246.937 118.431 247.311 129.267 247.684 124.658C248.183 120.174 248.432 137.862 248.307 163.894C248.058 210.105 248.058 211.351 245.193 217.703C243.699 221.316 241.83 224.305 241.207 224.305C240.46 224.305 240.709 223.309 241.581 222.063C243.2 220.195 243.076 220.07 241.083 221.689C239.837 222.686 238.218 224.679 237.595 226.049C236.35 228.54 236.35 228.665 238.218 226.298C239.339 224.928 240.211 224.43 240.211 225.302C240.211 226.049 239.214 227.419 237.844 228.291C236.599 229.163 235.229 231.156 234.73 232.65C234.232 234.27 233.236 235.515 232.488 235.515C231.865 235.515 229.499 237.01 227.381 238.754C222.025 243.362 208.075 249.964 201.972 250.961C192.879 252.331 93.1076 253.203 84.5131 251.957C75.2958 250.587 73.552 250.961 79.6553 252.829L83.8903 254.199L79.0325 253.576C76.2922 253.327 71.6836 251.334 68.8188 249.217C65.9539 247.224 62.84 245.48 61.8435 245.48C60.847 245.48 57.6085 242.864 54.6191 239.626C49.1385 233.896 50.3841 234.145 57.7331 240.373C61.2207 243.362 61.2207 243.487 58.9786 240.622C57.6085 239.003 53.9963 236.014 50.8824 233.896C47.7684 231.779 44.5299 229.038 43.658 227.917C42.7861 226.672 41.2914 224.803 40.1704 223.807C37.8037 221.44 35.3126 214.091 34.1916 206.369C33.3197 201.013 33.4442 200.39 35.3126 201.137C37.181 201.76 37.3055 200.764 36.4336 190.301C36.0599 184.073 35.188 177.969 34.8144 176.973C34.3161 175.976 33.9424 152.061 34.067 124.036C34.067 76.9527 34.1916 72.4686 36.4336 66.988C37.6792 63.7495 39.1739 61.1338 39.6721 61.1338C40.1704 61.1338 40.9177 59.8882 41.4159 58.2689C42.1633 55.0304 46.2737 50.92 54.6191 44.5675C57.7331 42.2009 60.0997 39.7098 59.9751 38.9624C59.726 38.2151 60.3488 37.8414 61.3453 38.2151C62.2172 38.5887 63.7119 37.9659 64.5838 36.8449C65.4557 35.8484 66.9504 34.9765 67.8223 34.9765C68.8188 34.9765 69.5661 34.4783 69.5661 33.8555C69.5661 31.9871 77.1642 30.7416 90.741 30.4924C97.9654 30.3679 104.442 30.1188 105.065 30.1188C108.179 29.6205 158.625 30.1188 163.358 30.617C169.586 31.3644 168.092 30.3679 160.369 28.7486C156.383 28.0013 161.739 27.7522 179.426 27.8767C193.003 28.0013 204.089 28.4995 204.089 28.8732ZM253.912 31.3644C253.912 32.1117 253.414 32.2363 252.667 31.8626C252.044 31.4889 251.421 30.4924 251.421 29.8697C251.421 29.1223 252.044 28.9977 252.667 29.3714C253.414 29.7451 253.912 30.7416 253.912 31.3644ZM22.234 33.4818C22.234 33.9801 20.9884 35.1011 19.4937 36.0976C16.6289 37.8414 16.6289 37.8414 18.9955 35.1011C21.4866 32.3608 22.234 31.9871 22.234 33.4818ZM41.0423 37.094C38.9248 39.7098 34.3161 44.9412 30.7039 48.8025C27.0917 52.5393 25.2234 54.4076 26.469 52.7884C27.8391 51.1691 28.5864 49.6744 28.2128 49.3007C27.4654 48.5534 23.355 53.0375 19.4937 58.6426C18.3727 60.3864 17.3762 61.1338 17.3762 60.3864C17.2516 58.518 29.7075 44.8166 30.953 45.564C31.5758 45.9377 34.6898 43.0728 37.9283 39.3361C44.6545 31.6135 46.8965 29.9942 41.0423 37.094ZM27.0917 43.0728C19.3691 52.4147 16.1306 55.4041 20.7393 48.9271C23.9778 44.443 33.4442 33.731 34.3161 33.731C34.5652 33.731 31.3267 37.9659 27.0917 43.0728ZM258.646 38.2151C258.147 38.5887 257.151 37.5923 256.403 35.973C254.909 33.2327 254.909 33.2327 257.151 35.2257C258.396 36.4712 259.019 37.7168 258.646 38.2151ZM243.948 36.8449C243.948 37.8414 243.449 38.7133 242.702 38.7133C242.079 38.7133 241.456 37.8414 241.456 36.8449C241.456 35.8484 242.079 34.9765 242.702 34.9765C243.449 34.9765 243.948 35.8484 243.948 36.8449ZM254.535 37.4677C254.535 38.3396 253.788 39.3361 253.04 39.5852C252.044 39.9589 251.421 39.087 251.421 37.4677C251.421 35.8484 252.044 34.9765 253.04 35.2257C253.788 35.5993 254.535 36.5958 254.535 37.4677ZM249.802 40.208C249.428 41.0799 249.179 40.4571 249.179 38.7133C249.179 36.9695 249.428 36.3467 249.802 37.094C250.051 37.9659 250.051 39.4606 249.802 40.208ZM17.3762 44.443C16.2552 47.5569 15.2587 49.1762 15.0096 48.1797C14.6359 46.5605 17.999 38.7133 18.9955 38.7133C19.2446 38.7133 18.4972 41.329 17.3762 44.443ZM58.3559 40.4571C58.3559 40.7062 57.3594 41.7027 56.2384 42.5746C54.2454 44.1939 54.1209 44.0693 55.7401 42.0764C57.3594 40.0834 58.3559 39.4606 58.3559 40.4571ZM247.684 41.5781C247.684 42.45 246.563 43.1974 245.193 43.3219C242.453 43.5711 241.83 41.8272 244.321 40.8308C246.937 39.7098 247.684 39.8343 247.684 41.5781ZM253.912 43.0728C253.912 44.0693 253.414 44.9412 252.667 44.9412C252.044 44.9412 251.421 44.0693 251.421 43.0728C251.421 42.0764 252.044 41.2045 252.667 41.2045C253.414 41.2045 253.912 42.0764 253.912 43.0728ZM249.802 46.4359C249.428 47.4324 249.055 47.0587 249.055 45.6885C248.93 44.3184 249.304 43.5711 249.677 44.0693C250.051 44.443 250.176 45.564 249.802 46.4359ZM257.649 45.564C256.777 46.685 255.781 47.1832 255.532 46.9341C254.66 46.0622 256.403 43.6956 257.898 43.6956C258.646 43.6956 258.646 44.443 257.649 45.564ZM247.311 48.9271C246.937 49.799 246.688 49.1762 246.688 47.4324C246.688 45.6885 246.937 45.0658 247.311 45.8131C247.56 46.685 247.56 48.1797 247.311 48.9271ZM252.916 48.9271C252.044 49.799 251.421 49.9235 251.421 49.1762C251.421 48.4288 251.795 47.4324 252.293 47.0587C252.667 46.5605 253.414 46.4359 253.788 46.8096C254.037 47.1832 253.663 48.1797 252.916 48.9271ZM259.767 55.155C259.517 56.7742 259.268 55.5287 259.268 52.4147C259.268 49.3007 259.517 48.0552 259.767 49.5499C260.016 51.1691 260.016 53.6603 259.767 55.155ZM257.649 49.799C257.649 50.5463 257.151 51.4182 256.403 51.7919C255.781 52.1656 255.158 51.6673 255.158 50.6709C255.158 49.5499 255.781 48.6779 256.403 48.6779C257.151 48.6779 257.649 49.1762 257.649 49.799ZM253.912 53.162C253.912 54.1585 253.414 54.6567 252.667 54.2831C252.044 53.9094 251.421 53.0375 251.421 52.2901C251.421 51.6673 252.044 51.1691 252.667 51.1691C253.414 51.1691 253.912 52.041 253.912 53.162ZM263.752 61.7566C263.752 63.7495 263.379 66.2407 262.756 67.1126C262.133 68.109 261.759 65.6179 261.635 60.8847C261.51 55.4041 261.884 53.7848 262.631 55.5287C263.254 56.8988 263.752 59.6391 263.752 61.7566ZM256.03 60.1373C255.656 61.0092 255.407 60.3864 255.407 58.6426C255.407 56.8988 255.656 56.276 256.03 57.0233C256.279 57.8953 256.279 59.39 256.03 60.1373ZM253.912 60.0127C253.912 60.6355 253.414 61.1338 252.667 61.1338C252.044 61.1338 251.421 60.2619 251.421 59.1408C251.421 58.1444 252.044 57.6461 252.667 58.0198C253.414 58.3935 253.912 59.2654 253.912 60.0127ZM258.895 63.2513C257.524 65.3688 257.524 65.3688 258.147 63.2513C258.521 62.0057 258.895 60.2619 259.019 59.5145C259.019 58.3935 259.268 58.3935 259.642 59.5145C260.016 60.3864 259.642 62.0057 258.895 63.2513ZM29.2092 62.6285C29.7075 63.3758 29.5829 63.6249 28.8356 63.2513C27.2163 62.2548 24.6006 65.1196 24.2269 68.2336C23.9778 69.4792 23.4796 70.3511 22.9813 70.102C21.7357 69.6037 17.2516 74.8352 17.2516 76.8281C17.2516 77.7 16.7534 78.6965 16.2552 79.0702C15.6324 79.4438 15.2587 78.5719 15.3833 77.0772C15.5078 74.9597 26.3444 61.1338 27.8391 61.1338C28.0882 61.1338 28.711 61.7566 29.2092 62.6285ZM18.2481 66.1161C16.5043 68.8564 15.2587 68.4827 16.3797 65.4933C16.878 64.4968 17.7499 63.6249 18.4972 63.6249C19.2446 63.6249 19.2446 64.4968 18.2481 66.1161ZM253.539 66.3652C253.165 67.3617 252.791 66.988 252.791 65.6179C252.667 64.2477 253.04 63.5004 253.414 63.9986C253.788 64.3723 253.912 65.4933 253.539 66.3652ZM259.268 68.6073C258.895 69.9774 258.396 71.0984 258.147 71.0984C257.898 71.0984 257.649 69.9774 257.649 68.6073C257.649 67.2371 258.147 66.1161 258.77 66.1161C259.393 66.1161 259.642 67.2371 259.268 68.6073ZM11.0237 75.9562C11.0237 76.7036 10.5255 77.5755 9.77815 77.9491C9.15535 78.3228 8.53256 77.8246 8.53256 76.8281C8.53256 75.7071 9.15535 74.8352 9.77815 74.8352C10.5255 74.8352 11.0237 75.3334 11.0237 75.9562ZM21.7357 81.6859C19.8674 84.177 17.999 88.1629 17.7499 90.6541C17.3762 93.1452 16.6288 96.0101 15.8815 97.1311C14.885 98.7504 14.7605 98.5012 15.1342 96.0101C15.3833 94.2663 16.1306 91.7751 16.6289 90.5295C17.3762 88.7857 17.2516 88.412 16.2552 89.0348C15.3833 89.533 14.7605 89.533 14.7605 89.0348C14.7605 87.6647 23.8532 76.0808 24.476 76.7036C24.8497 76.9527 23.6041 79.3193 21.7357 81.6859ZM262.382 81.0631C261.51 82.3087 260.638 83.1806 260.265 82.9315C259.767 82.4332 262.507 78.5719 263.379 78.5719C263.628 78.5719 263.254 79.6929 262.382 81.0631ZM23.4796 85.2981C20.8638 89.6576 19.7428 90.6541 19.7428 88.7857C19.7428 87.0419 24.8497 79.5684 25.597 80.1912C25.9707 80.5649 24.9743 82.9315 23.4796 85.2981ZM266.493 83.9279C265.496 84.9244 265.123 84.7998 265.123 83.4297C265.123 82.3087 265.496 81.0631 265.994 80.5649C266.493 80.0666 267.115 80.3157 267.365 81.0631C267.738 81.935 267.24 83.1806 266.493 83.9279ZM263.877 85.049C263.752 87.291 260.265 91.6505 259.393 90.6541C258.895 90.2804 259.517 88.412 260.638 86.6682C262.881 83.1806 263.877 82.6823 263.877 85.049ZM266.493 91.8997C265.372 93.8926 265.247 93.8926 265.123 92.0242C265.123 90.9032 265.496 88.9103 265.994 87.6647C266.866 85.6717 266.991 85.5472 267.365 87.5401C267.614 88.7857 267.24 90.6541 266.493 91.8997ZM29.3338 95.0136C29.0847 96.6329 28.8356 95.3873 28.8356 92.2733C28.8356 89.1594 29.0847 87.9138 29.3338 89.4085C29.5829 91.0277 29.5829 93.5189 29.3338 95.0136ZM21.4866 95.6364C16.3797 103.857 14.7605 105.85 14.7605 103.982C14.7605 102.487 24.476 88.5366 25.4725 88.5366C25.7216 88.5366 23.9778 91.7751 21.4866 95.6364ZM26.5935 93.1452C26.0953 94.3908 25.7216 96.7574 25.8462 98.5012C25.9707 101.366 16.1306 117.808 15.0096 116.562C14.7605 116.313 15.8815 113.448 17.7499 110.21C21.3621 103.733 21.6112 102.985 19.6182 104.231C18.4972 104.854 21.6112 98.5012 25.597 91.8997C26.7181 90.1558 27.4654 91.0277 26.5935 93.1452ZM262.756 95.761C262.133 97.0065 260.514 98.8749 259.393 99.8714C257.4 101.366 257.4 101.117 259.517 97.5048C262.009 93.3944 264.873 91.7751 262.756 95.761ZM266.617 97.5048C265.745 98.3767 265.123 98.5012 265.123 97.7539C265.123 97.0065 265.496 96.0101 265.994 95.6364C266.368 95.1382 267.115 95.0136 267.489 95.3873C267.738 95.761 267.365 96.7574 266.617 97.5048ZM262.756 101.864C262.133 103.11 260.016 105.477 258.147 107.22L254.66 110.334L257.649 105.975C261.51 100.37 265.247 97.3802 262.756 101.864ZM266.493 108.092C265.247 110.21 265.247 110.085 265.123 107.719C265.123 104.854 266.742 102.612 267.365 104.605C267.614 105.352 267.24 106.847 266.493 108.092ZM252.293 107.469C251.919 108.466 251.546 108.092 251.546 106.722C251.421 105.352 251.795 104.605 252.168 105.103C252.542 105.477 252.667 106.598 252.293 107.469ZM16.3797 109.089C15.5078 111.704 14.7605 111.455 14.7605 108.341C14.7605 106.971 15.2587 106.099 16.0061 106.598C16.6289 106.971 16.878 108.092 16.3797 109.089ZM23.4796 115.939C19.7428 121.295 18.7463 119.676 22.3585 113.946C23.8532 111.331 25.4725 109.961 25.7216 110.708C25.9707 111.455 24.9743 113.946 23.4796 115.939ZM263.877 110.708C263.877 111.331 262.258 113.324 260.14 115.317C255.781 119.552 255.158 118.431 259.268 113.448C262.009 109.836 263.877 108.84 263.877 110.708ZM267.115 114.196C266.617 115.317 265.994 116.064 265.745 115.69C265.372 115.317 265.372 114.071 265.87 112.95C266.368 111.829 266.991 111.082 267.24 111.455C267.614 111.829 267.614 113.075 267.115 114.196ZM24.2269 119.427C21.9849 121.42 21.9849 121.42 23.4796 118.68C24.2269 117.06 25.2234 116.064 25.7216 116.438C26.0953 116.936 25.4725 118.181 24.2269 119.427ZM263.254 118.68C262.258 122.043 257.774 127.15 256.03 127.15C255.282 127.15 255.781 126.029 257.026 124.658C258.272 123.288 258.77 122.167 258.272 122.167C257.649 122.167 258.521 120.797 260.14 119.053C263.752 115.192 264.251 115.192 263.254 118.68ZM16.2552 121.171C15.8815 122.915 16.0061 123.537 17.0025 122.915C18.8709 121.794 18.8709 122.292 16.6289 127.274L14.885 131.509L14.7605 124.908C14.7605 121.42 15.2587 118.431 15.8815 118.431C16.5043 118.431 16.7534 119.676 16.2552 121.171ZM267.115 121.669C266.617 122.79 265.994 123.537 265.745 123.164C265.372 122.79 265.372 121.545 265.87 120.423C266.368 119.302 266.991 118.555 267.24 118.929C267.614 119.302 267.614 120.548 267.115 121.669ZM20.9884 131.385C17.0025 137.737 16.0061 140.353 16.5043 142.969C16.878 144.961 16.7534 147.328 16.0061 148.325C14.2622 151.065 14.3868 138.983 16.1306 135.495C19.4937 129.018 25.3479 120.797 25.7216 121.918C25.9707 122.666 23.8532 126.901 20.9884 131.385ZM263.379 126.776C262.507 129.267 257.151 135.869 255.905 135.869C255.407 135.869 255.656 134.748 256.403 133.378C257.151 132.007 257.4 130.139 256.902 129.392C256.403 128.644 256.528 128.395 257.275 128.769C258.023 129.267 259.517 128.146 260.763 126.402C263.005 122.915 264.5 123.164 263.379 126.776ZM267.614 129.018C267.614 130.014 267.115 130.886 266.368 130.886C265.745 130.886 265.496 130.014 265.87 129.018C266.368 128.022 266.866 127.15 267.115 127.15C267.365 127.15 267.614 128.022 267.614 129.018ZM24.7251 132.007C23.9778 133.502 23.7287 135.37 24.2269 136.118C24.7251 136.99 24.6006 137.114 23.7287 136.616C22.9813 136.118 21.4866 137.363 20.3656 139.605C19.3691 141.598 18.1235 143.342 17.7499 143.342C16.5043 143.342 18.7463 137.737 21.8603 133.004C25.2234 128.146 27.2163 127.523 24.7251 132.007ZM260.638 140.477L257.151 145.211L260.514 142.221C262.382 140.477 263.877 139.73 263.877 140.477C263.877 141.1 262.756 142.719 261.386 143.965C260.016 145.211 259.268 146.581 259.517 147.079C259.767 147.577 258.895 149.072 257.524 150.317C255.033 152.56 255.033 152.56 256.403 148.947C257.4 146.332 257.4 145.086 256.528 144.837C255.656 144.588 255.656 143.467 256.653 141.723C257.524 140.228 258.272 138.36 258.272 137.737C258.396 136.99 259.144 136.616 260.14 136.865C261.137 137.114 261.635 136.865 261.137 136.367C260.638 135.869 260.888 134.623 261.759 133.627C263.13 132.007 263.254 132.007 263.628 133.751C263.877 134.872 262.507 137.986 260.638 140.477ZM267.24 137.363C266.866 138.36 266.493 137.986 266.493 136.616C266.368 135.246 266.742 134.499 267.115 134.997C267.489 135.37 267.614 136.492 267.24 137.363ZM29.3338 142.969C28.9601 144.214 28.711 143.467 28.711 141.474C28.711 139.356 28.9601 138.484 29.3338 139.232C29.5829 140.104 29.5829 141.848 29.3338 142.969ZM267.24 145.46C266.866 146.705 266.617 145.958 266.617 143.965C266.617 141.848 266.866 140.976 267.24 141.723C267.489 142.595 267.489 144.339 267.24 145.46ZM25.4725 148.823C25.4725 150.442 24.3515 152.435 23.2304 153.182C21.1129 154.428 21.1129 154.303 23.1059 150.193C24.2269 147.826 25.3479 145.833 25.4725 145.833C25.597 145.833 25.597 147.204 25.4725 148.823ZM263.877 147.577C263.877 148.574 262.009 150.691 259.891 152.31L255.905 155.175L259.517 150.442C263.752 145.211 263.877 145.086 263.877 147.577ZM10.6501 149.819C10.2764 150.816 9.9027 150.442 9.9027 149.072C9.77815 147.702 10.1518 146.954 10.5255 147.453C10.8992 147.826 11.0237 148.947 10.6501 149.819ZM29.3338 152.31C28.9601 153.182 28.711 152.56 28.711 150.816C28.711 149.072 28.9601 148.449 29.3338 149.196C29.5829 150.068 29.5829 151.563 29.3338 152.31ZM17.2516 153.182C16.5043 154.677 15.3833 155.549 14.7605 155.175C14.1377 154.802 14.5114 153.431 15.6324 152.061C18.2481 149.072 19.12 149.695 17.2516 153.182ZM263.628 156.172C262.631 157.666 260.763 160.407 259.517 162.275C258.396 164.268 257.649 165.763 258.023 165.763C258.396 165.763 259.767 163.894 261.261 161.652C263.379 158.414 263.877 158.165 263.877 160.282C263.877 161.652 262.258 164.393 260.265 166.261L256.528 169.749L256.902 163.147C257.026 158.912 257.649 156.421 258.646 156.421C259.393 156.421 261.012 155.051 262.258 153.431C264.873 149.57 266.119 152.186 263.628 156.172ZM17.3762 159.161C15.8815 161.652 15.6324 160.905 16.7534 157.666C17.2516 156.545 17.8744 155.923 18.1235 156.296C18.4972 156.545 18.1235 157.916 17.3762 159.161ZM23.6041 163.521C22.4831 165.763 20.6147 168.877 19.6182 170.496L17.6253 173.361V170.247C17.6253 168.503 17.999 167.382 18.6218 167.756C19.2446 168.129 19.7428 167.88 19.7428 167.257C19.7428 166.136 24.476 159.535 25.3479 159.535C25.4725 159.535 24.7251 161.403 23.6041 163.521ZM252.293 162.275C251.919 163.272 251.546 162.898 251.546 161.528C251.421 160.158 251.795 159.41 252.168 159.908C252.542 160.282 252.667 161.403 252.293 162.275ZM262.009 171.243C259.019 175.105 256.403 176.973 256.403 175.105C256.403 173.984 264.251 165.638 264.749 166.261C265.123 166.635 263.877 168.877 262.009 171.243ZM253.912 167.507C253.912 167.88 253.414 168.503 252.667 168.877C252.044 169.25 251.421 169.001 251.421 168.378C251.421 167.631 252.044 167.008 252.667 167.008C253.414 167.008 253.912 167.257 253.912 167.507ZM265.123 174.482C265.123 175.852 263.254 179.09 260.888 181.582L256.653 186.19L256.902 182.329C257.026 180.211 257.524 177.969 258.023 177.347C258.646 176.848 258.646 177.347 258.147 178.592C256.777 182.204 258.521 180.959 261.386 176.35C264.5 171.368 265.123 170.994 265.123 174.482ZM261.386 187.062C259.393 189.304 257.649 190.799 257.649 190.301C257.649 188.432 264.375 180.336 264.873 181.706C264.998 182.329 263.503 184.82 261.386 187.062ZM19.9919 185.941C19.12 186.813 18.4972 186.938 18.4972 186.19C18.4972 184.446 19.9919 182.952 20.8638 183.824C21.1129 184.197 20.7393 185.194 19.9919 185.941ZM262.009 193.166C258.272 198.522 256.403 200.265 256.403 198.397C256.403 196.902 264.251 186.938 264.873 187.56C265.247 187.934 263.877 190.425 262.009 193.166ZM25.0988 195.657C24.7251 197.027 23.9778 198.148 23.2304 198.148C22.6076 198.148 22.7322 197.027 23.4796 195.657C24.2269 194.287 24.9743 193.166 25.2234 193.166C25.4725 193.166 25.4725 194.287 25.0988 195.657ZM30.8285 199.643C30.8285 204.376 30.7039 204.625 29.5829 202.009C28.5864 199.269 29.0847 194.411 30.4548 194.411C30.7039 194.411 30.953 196.778 30.8285 199.643ZM263.13 198.272C261.884 199.643 259.642 201.386 258.272 202.134C256.653 203.006 257.026 202.134 259.517 199.643C263.752 195.408 266.742 194.287 263.13 198.272ZM25.9707 200.514C25.9707 201.137 25.0988 202.258 24.1023 203.13C22.1094 204.874 21.8603 204.376 22.9813 201.386C23.7287 199.269 25.9707 198.646 25.9707 200.514ZM261.635 204.376C259.393 206.369 257.151 208.112 256.653 208.112C255.656 207.988 264.002 200.639 264.998 200.639C265.372 200.639 263.877 202.258 261.635 204.376ZM251.047 204.625C250.674 205.621 250.3 205.248 250.3 203.878C250.176 202.507 250.549 201.76 250.923 202.258C251.297 202.632 251.421 203.753 251.047 204.625ZM26.7181 206.493C25.4725 207.739 24.3515 205.87 25.4725 204.251C26.2198 202.881 26.469 202.881 26.9672 204.251C27.2163 205.123 27.0917 206.12 26.7181 206.493ZM263.877 208.735C263.005 209.856 261.012 211.351 259.642 212.098C257.649 213.095 257.898 212.472 260.638 209.483C264.251 205.621 266.991 204.999 263.877 208.735ZM17.6253 211.226C17.2516 212.347 16.6289 212.97 16.3797 212.597C16.0061 212.223 16.1306 211.476 16.6289 210.728C17.7499 208.735 18.4972 209.109 17.6253 211.226ZM266.368 213.095C266.368 214.465 265.372 215.96 264.251 216.458C263.005 216.832 260.763 218.326 259.268 219.696C254.66 223.807 256.03 220.444 261.012 215.337C263.503 212.721 265.745 210.604 265.994 210.604C266.244 210.604 266.368 211.725 266.368 213.095ZM25.597 214.59C25.2234 215.586 24.8497 215.212 24.8497 213.842C24.7251 212.472 25.0988 211.725 25.4725 212.223C25.8462 212.597 25.9707 213.718 25.597 214.59ZM19.3691 218.326C19.4937 221.689 19.2446 221.938 18.4972 219.946C17.1271 216.582 17.0025 214.34 18.2481 214.34C18.8709 214.34 19.3691 216.209 19.3691 218.326ZM28.5864 219.696C27.59 220.693 27.2163 220.319 27.2163 218.575C27.2163 215.212 28.9601 213.469 29.4583 216.209C29.7075 217.33 29.3338 218.949 28.5864 219.696ZM23.9778 224.679C23.6041 225.8 22.7322 226.796 22.1094 226.796C20.7393 226.796 20.6147 222.561 21.8603 221.44C23.2304 219.946 24.8497 222.437 23.9778 224.679ZM270.852 223.807C270.354 224.928 269.731 225.675 269.482 225.302C269.108 224.928 269.108 223.682 269.607 222.561C270.105 221.44 270.728 220.693 270.977 221.067C271.35 221.44 271.35 222.686 270.852 223.807ZM257.649 223.433C257.649 223.682 256.154 225.177 254.286 226.921L250.798 229.91L253.788 226.423C256.653 223.309 257.649 222.437 257.649 223.433ZM265.994 225.8C265.621 226.796 265.247 226.423 265.247 225.052C265.123 223.682 265.496 222.935 265.87 223.433C266.244 223.807 266.368 224.928 265.994 225.8ZM26.2198 227.045C25.3479 227.917 24.7251 228.042 24.7251 227.294C24.7251 225.551 26.2198 224.056 27.0917 224.928C27.3409 225.302 26.9672 226.298 26.2198 227.045ZM261.386 228.042C261.386 229.412 260.763 230.533 259.891 230.533C259.144 230.533 257.4 231.405 256.154 232.65C253.04 235.391 253.29 232.9 256.528 228.789C259.517 224.928 261.386 224.679 261.386 228.042ZM24.2269 233.896C22.9813 235.142 21.8603 233.273 22.9813 231.654C23.7287 230.284 23.9778 230.284 24.476 231.654C24.7251 232.526 24.6006 233.522 24.2269 233.896ZM30.3303 236.761C29.3338 238.754 27.7145 240.373 26.8426 240.124C26.0953 239.999 25.4725 240.622 25.7216 241.494C25.8462 242.491 25.4725 242.864 24.7251 242.366C23.9778 241.868 24.2269 240.498 25.4725 238.629C26.5935 236.885 27.9636 235.764 28.4619 236.138C28.9601 236.512 29.7075 235.889 30.2057 234.893C30.5794 233.896 31.2022 233.024 31.5758 233.024C31.9495 233.024 31.4513 234.643 30.3303 236.761ZM34.6898 239.875C34.6898 240.871 34.1916 241.743 33.4442 241.743C32.8214 241.743 32.1986 240.871 32.1986 239.875C32.1986 238.878 32.8214 238.006 33.4442 238.006C34.1916 238.006 34.6898 238.878 34.6898 239.875ZM246.439 240.124C244.446 243.736 238.965 249.964 238.965 248.718C238.965 247.597 246.314 238.006 247.186 238.006C247.56 238.006 247.186 239.003 246.439 240.124ZM250.176 245.605C246.812 249.341 243.948 251.832 243.948 251.21C243.948 249.964 255.407 237.882 256.03 238.505C256.279 238.629 253.663 241.868 250.176 245.605ZM40.4195 240.747C40.9177 241.619 40.7931 241.743 39.9212 241.245C39.0493 240.747 38.4265 241.245 38.4265 242.491C38.4265 243.736 38.0529 244.359 37.6792 243.861C36.8073 243.113 37.9283 239.252 38.9248 239.252C39.2984 239.252 39.9212 239.875 40.4195 240.747ZM227.755 241.12C225.388 243.861 215.05 250.462 212.933 250.462C211.936 250.462 214.427 248.469 218.538 245.978C222.524 243.612 226.385 240.996 227.132 240.373C229.001 238.629 229.499 239.003 227.755 241.12ZM30.8285 243.736C28.9601 245.978 28.0882 245.355 29.2092 242.491C29.5829 241.37 30.4548 240.871 31.2022 241.245C31.825 241.619 31.7004 242.74 30.8285 243.736ZM45.9 243.113C45.9 243.736 45.4018 244.11 44.779 243.612C44.1562 243.238 43.2843 243.985 42.7861 245.355C42.4124 246.726 41.2914 248.469 40.2949 249.217C38.8002 250.462 38.4265 250.338 38.4265 248.096C38.4265 246.601 38.9248 245.605 39.5476 246.103C40.2949 246.476 41.4159 245.605 42.1633 244.234C43.5334 241.619 45.9 240.871 45.9 243.113ZM35.9354 244.857C35.9354 245.854 35.4371 246.726 34.6898 246.726C34.067 246.726 33.4442 245.854 33.4442 244.857C33.4442 243.861 34.067 242.989 34.6898 242.989C35.4371 242.989 35.9354 243.861 35.9354 244.857ZM255.905 248.968C253.912 250.836 252.791 251.459 253.29 250.462C254.909 247.348 258.023 244.234 258.77 244.857C259.144 245.231 257.774 247.099 255.905 248.968ZM33.4442 248.096C33.4442 248.718 32.946 249.217 32.1986 249.217C31.5758 249.217 30.953 248.345 30.953 247.224C30.953 246.227 31.5758 245.729 32.1986 246.103C32.946 246.476 33.4442 247.348 33.4442 248.096ZM44.2808 250.711C43.9071 251.708 43.5334 251.334 43.5334 249.964C43.4089 248.594 43.7825 247.847 44.1562 248.345C44.5299 248.718 44.6545 249.84 44.2808 250.711ZM37.181 250.961C37.181 251.957 36.3091 252.953 35.3126 253.452C33.1951 254.199 33.0705 253.95 34.1916 251.21C35.188 248.718 37.181 248.594 37.181 250.961ZM42.1633 252.829C42.1633 253.452 41.2914 254.573 40.2949 255.445C38.302 257.188 38.0529 256.69 39.1739 253.701C39.9212 251.583 42.1633 250.961 42.1633 252.829ZM59.1032 257.313C57.9822 258.434 56.9857 258.683 56.4875 257.936C56.1138 257.313 56.3629 256.69 57.1103 256.69C57.9822 256.69 58.2313 255.694 57.6085 253.95C56.8612 251.334 56.8612 251.334 58.8541 253.327C60.847 255.196 60.847 255.694 59.1032 257.313ZM44.779 255.818C43.5334 256.939 43.4089 256.815 44.1562 255.071C44.5299 253.825 45.2772 253.203 45.6509 253.576C46.0246 253.95 45.6509 254.946 44.779 255.818ZM55.2419 254.199C55.6156 254.822 55.3665 255.445 54.7437 255.445C53.9963 255.445 53.3735 254.822 53.3735 254.199C53.3735 253.452 53.6226 252.953 53.8718 252.953C54.2454 252.953 54.8682 253.452 55.2419 254.199ZM220.282 254.946C219.285 255.943 217.417 257.438 216.047 258.185C213.68 259.43 213.805 259.181 216.42 256.192C219.659 252.829 223.022 251.583 220.282 254.946ZM48.7649 260.552C46.0246 263.416 44.6545 264.039 44.0317 262.918C43.4089 261.922 43.5334 261.548 44.2808 262.046C45.0281 262.544 45.9 261.673 46.2737 260.302C46.6474 258.808 47.5193 258.06 48.1421 258.434C48.8894 258.808 49.7613 258.309 50.135 257.188C50.6332 256.067 51.3806 255.445 51.7543 255.943C52.2525 256.441 50.8824 258.434 48.7649 260.552ZM73.6765 257.562C72.8046 257.811 72.0573 258.683 72.0573 259.306C72.0573 259.804 72.9292 260.053 73.9256 259.68C76.0431 258.808 76.5414 261.05 74.4239 262.295C73.6765 262.794 72.4309 262.171 71.4345 260.925C69.8152 258.559 70.9362 256.566 73.9256 256.815C74.673 256.815 74.4239 257.188 73.6765 257.562ZM97.3426 257.562C96.4707 257.811 94.7269 257.811 93.6058 257.562C92.3603 257.188 93.1076 256.939 95.1005 256.939C97.218 256.939 98.0899 257.188 97.3426 257.562ZM111.044 257.562C110.172 257.811 108.428 257.811 107.307 257.562C106.062 257.188 106.809 256.939 108.802 256.939C110.919 256.939 111.791 257.188 111.044 257.562ZM126.489 257.438C126.116 257.811 124.995 257.936 124.123 257.562C123.126 257.188 123.5 256.815 124.87 256.815C126.24 256.69 126.987 257.064 126.489 257.438ZM175.441 258.559C174.195 260.053 174.195 260.427 175.441 260.427C176.437 260.427 176.811 260.801 176.313 261.174C175.939 261.548 174.942 261.548 174.195 261.05C173.199 260.427 173.199 259.68 174.32 258.434C175.067 257.438 176.063 256.69 176.313 256.69C176.686 256.69 176.313 257.562 175.441 258.559ZM64.5838 259.929C64.5838 261.174 63.8364 261.673 62.84 261.299C61.968 260.925 60.4733 261.299 59.6014 262.046C58.605 263.043 58.605 262.669 59.726 260.676C61.7189 257.438 64.5838 257.064 64.5838 259.929ZM136.205 259.181C135.831 259.804 134.835 260.427 134.212 260.427C133.464 260.427 133.34 259.804 133.714 259.181C134.087 258.434 135.084 257.936 135.707 257.936C136.454 257.936 136.578 258.434 136.205 259.181ZM143.678 259.181C140.315 260.676 138.322 260.676 140.564 259.181C141.561 258.559 143.305 258.06 144.301 258.06C145.547 258.06 145.298 258.434 143.678 259.181ZM154.888 260.427C153.643 261.797 151.775 262.918 150.654 262.794C148.91 262.794 148.91 262.669 150.529 262.046C151.525 261.673 152.896 260.552 153.394 259.68C153.892 258.683 155.013 257.936 155.76 257.936C156.508 257.936 156.134 259.057 154.888 260.427ZM162.362 259.181C161.988 259.804 160.992 260.427 160.369 260.427C159.622 260.427 159.497 259.804 159.871 259.181C160.244 258.434 161.241 257.936 161.864 257.936C162.611 257.936 162.736 258.434 162.362 259.181ZM163.358 264.786C154.141 272.135 149.906 274.253 157.38 267.527C159.995 265.409 163.234 262.295 164.729 260.925C166.099 259.43 168.341 258.185 169.586 258.06C170.957 257.936 168.341 260.801 163.358 264.786ZM221.527 260.302C220.904 261.673 219.659 263.167 218.787 263.665C217.915 264.288 217.79 263.915 218.413 262.794C221.029 258.185 223.894 255.943 221.527 260.302ZM208.075 263.79C202.843 270.392 199.48 273.256 197.737 272.634C196.117 272.135 196.865 271.388 207.203 262.42C212.31 258.06 212.434 258.309 208.075 263.79ZM54.6191 261.673C54.6191 262.295 54.1209 262.918 53.4981 262.918C52.7507 262.918 51.8788 262.295 51.5052 261.673C51.1315 260.925 51.6297 260.427 52.6262 260.427C53.7472 260.427 54.6191 260.925 54.6191 261.673ZM66.9504 263.665C65.2066 265.908 63.961 265.036 65.082 262.295C65.4557 261.174 66.4521 260.676 67.0749 261.05C68.0714 261.673 67.9468 262.42 66.9504 263.665ZM92.8585 261.174C92.4848 261.548 91.3638 261.673 90.4919 261.299C89.4954 260.925 89.8691 260.552 91.2392 260.552C92.6094 260.427 93.3567 260.801 92.8585 261.174ZM99.4601 261.673C99.4601 263.292 95.9725 264.786 94.7269 263.665C94.3532 263.167 94.7269 262.295 95.7233 261.673C98.2145 260.053 99.4601 260.178 99.4601 261.673ZM101.951 266.032C95.1005 273.007 96.4707 273.256 104.692 266.53C111.418 260.801 114.033 260.427 108.179 266.032C106.062 268.025 104.442 270.018 104.442 270.641C104.442 272.26 107.93 270.267 112.539 265.908C115.03 263.541 118.268 261.673 119.763 261.673C122.13 261.797 121.507 262.794 115.902 267.9C108.802 274.502 107.307 274.876 96.097 273.132L90.8656 272.26L97.9654 266.281C106.934 258.808 109.176 258.683 101.951 266.032ZM78.2852 263.541C77.4133 264.537 76.1677 265.409 75.5449 265.409C74.7976 265.409 74.9221 264.537 75.794 263.541C76.6659 262.544 77.9115 261.673 78.5343 261.673C79.2816 261.673 79.1571 262.544 78.2852 263.541ZM84.5131 262.544C84.5131 264.164 80.4027 267.9 78.5343 267.9C77.0396 267.9 77.2887 267.153 79.5308 264.786C82.3956 261.797 84.5131 260.801 84.5131 262.544ZM125.244 263.416C124.123 266.281 125.866 266.779 127.735 264.164C128.731 262.794 130.226 261.673 131.098 261.673C132.094 261.673 130.973 263.79 128.607 266.281C123.251 272.135 123.126 274.253 128.482 269.893C134.835 264.662 138.073 262.544 138.696 263.167C139.07 263.416 136.703 265.783 133.589 268.399C129.603 271.762 126.365 273.256 122.752 273.755L117.521 274.377L121.881 270.516C125.742 267.153 125.991 266.032 122.877 266.53C121.382 266.779 121.756 264.786 123.375 263.167C125.368 261.174 125.991 261.299 125.244 263.416ZM231.492 264.164C230.744 265.534 229.623 266.655 229.001 266.655C227.257 266.655 227.506 265.908 229.748 263.665C232.364 260.925 233.111 261.174 231.492 264.164ZM50.8824 264.911C50.8824 265.908 50.2596 266.406 49.6368 266.032C48.8894 265.534 48.6403 264.662 49.014 264.039C50.135 262.295 50.8824 262.669 50.8824 264.911ZM88.2498 263.665C88.2498 264.164 87.2534 265.285 86.1323 266.281C84.7622 267.402 84.6377 267.776 85.7587 267.153C86.7551 266.655 86.1323 267.9 84.3885 269.769C82.3956 271.762 80.4027 272.758 79.5308 272.26C78.5343 271.637 79.2816 270.018 82.1465 267.153C86.0078 263.167 88.2498 261.922 88.2498 263.665ZM140.44 267.9C137.824 270.641 134.959 272.883 134.087 272.883C132.593 272.758 142.806 263.043 144.426 262.918C144.799 262.918 143.055 265.16 140.44 267.9ZM153.767 267.402C151.152 269.769 148.785 271.513 148.411 271.264C147.913 270.641 156.757 262.918 158.002 262.918C158.376 262.918 156.508 264.911 153.767 267.402ZM212.559 267.278C210.94 269.644 208.947 271.637 208.199 271.637C205.708 271.637 206.206 270.267 209.943 266.406C214.552 261.548 215.922 262.046 212.559 267.278ZM57.1103 265.409C57.1103 266.032 55.9893 267.153 54.4946 267.9C52.1279 269.271 52.0034 269.146 53.3735 266.779C54.7437 264.039 57.1103 263.167 57.1103 265.409ZM65.7048 270.267C64.9574 270.392 63.5873 269.644 62.7154 268.399C59.8506 264.537 60.5979 263.665 63.961 266.779C65.5802 268.399 66.4521 270.018 65.7048 270.267ZM70.8117 265.285C70.8117 266.779 68.3205 268.399 67.4486 267.527C66.5767 266.655 68.196 264.164 69.6907 264.164C70.3135 264.164 70.8117 264.662 70.8117 265.285ZM148.038 267.9C143.678 271.762 140.44 273.007 142.931 270.018C143.678 269.021 143.927 268.025 143.554 267.651C143.18 267.278 143.554 266.53 144.426 265.908C145.422 265.409 145.671 265.534 145.048 266.406C143.803 268.523 145.796 268.274 148.785 266.032C153.02 262.794 152.522 264.164 148.038 267.9ZM168.341 265.036C167.469 265.285 166.722 266.157 166.722 266.904C166.722 268.523 162.86 271.513 160.743 271.637C159.871 271.637 160.992 270.018 163.234 267.9C165.476 265.908 167.967 264.288 168.59 264.288C169.337 264.288 169.088 264.662 168.341 265.036ZM91.2392 267.278C89.9937 268.274 89.3709 269.146 89.9937 269.146C90.6164 269.146 90.3673 270.018 89.4954 271.014C88.6235 272.011 87.2534 272.883 86.506 272.883C85.7587 272.883 86.2569 272.011 87.5025 271.014C88.8726 270.018 89.4954 269.146 88.9972 269.146C88.3744 269.146 88.6235 268.274 89.4954 267.278C90.3673 266.281 91.6129 265.409 92.3603 265.409C93.1076 265.409 92.6094 266.281 91.2392 267.278ZM60.2242 269.271C59.726 269.893 58.605 270.392 57.484 270.392C55.8647 270.392 55.8647 270.018 57.1103 268.523C58.7295 266.655 61.4698 267.153 60.2242 269.271ZM72.9292 268.399C72.4309 269.644 72.9292 269.893 74.673 269.52C75.9186 269.146 77.0396 269.52 77.0396 270.267C77.0396 271.762 74.5484 272.011 71.559 270.89C69.5661 270.143 70.1889 266.655 72.3064 266.655C73.0537 266.655 73.3029 267.402 72.9292 268.399ZM190.388 267.153C190.388 267.527 189.889 268.15 189.142 268.523C188.519 268.897 187.896 268.648 187.896 268.025C187.896 267.278 188.519 266.655 189.142 266.655C189.889 266.655 190.388 266.904 190.388 267.153ZM217.79 267.776C217.79 269.271 215.299 270.89 214.427 270.018C213.555 269.146 215.175 266.655 216.669 266.655C217.292 266.655 217.79 267.153 217.79 267.776ZM224.641 267.9C224.267 268.523 223.146 269.146 222.399 269.146C221.527 269.146 221.652 268.648 222.773 267.9C225.139 266.406 225.638 266.406 224.641 267.9ZM119.389 268.274C119.389 268.523 117.895 270.018 116.026 271.762L112.539 274.751L115.528 271.264C118.393 268.15 119.389 267.278 119.389 268.274ZM172.078 277.491C170.458 277.741 167.967 277.741 166.472 277.491C164.853 277.242 166.099 276.993 169.213 276.993C172.327 276.993 173.572 277.242 172.078 277.491Z" fill="black"/>
<path d="M230.246 25.8838C230.246 26.382 230.869 27.7522 231.492 28.7486C232.488 30.3679 232.737 30.3679 232.737 28.4995C232.737 27.3785 232.239 26.0084 231.492 25.6347C230.869 25.261 230.246 25.261 230.246 25.8838Z" fill="black"/>
<path d="M120.137 42.5746C120.51 43.1974 118.393 43.3219 115.528 42.9482C111.418 42.3255 110.546 42.5746 111.293 43.8202C112.04 45.1903 111.916 45.3149 110.546 43.9447C108.553 42.0763 89.3708 41.8272 87.5024 43.6956C86.7551 44.4429 84.3885 45.564 82.1464 46.1868C78.6588 47.1832 78.2851 47.0587 79.5307 45.564C82.0219 42.5746 79.4062 43.4465 71.8081 48.0551C67.8222 50.4217 64.5837 52.041 64.5837 51.6673C64.5837 50.4217 55.3664 58.8917 55.1173 60.3864C54.9927 61.1338 52.7507 66.1161 50.2595 71.4721C47.7684 76.8281 46.0245 81.935 46.3982 82.6823C46.6473 83.5542 47.021 83.1806 47.021 82.0595C47.1456 80.9385 47.6438 79.6929 48.142 79.3193C48.7648 78.9456 48.7648 81.3122 48.2666 84.5507C47.021 91.7751 47.1456 169.375 48.3912 186.315C49.0139 194.162 48.8894 199.02 48.142 199.518C47.3947 200.016 47.2701 201.635 47.7684 203.13C48.5157 205.372 48.8894 205.621 49.8858 204.251C50.7578 203.006 50.8823 203.255 50.3841 205.497C49.6367 209.358 52.7507 217.205 57.9821 224.554C62.3417 230.533 62.3417 232.277 58.1067 228.415C56.8611 227.294 55.8646 226.921 55.8646 227.668C55.8646 228.291 57.3593 229.661 59.2277 230.533C61.2206 231.529 64.3346 233.398 66.203 234.643C70.1888 237.384 72.5554 236.512 68.8187 233.647C65.4556 231.156 67.324 231.405 74.2993 234.394C87.1288 239.999 88.3743 240.498 87.627 239.252C87.2533 238.629 88.0007 238.006 89.3708 238.006C90.8655 238.006 91.9865 238.505 91.9865 239.252C91.9865 239.875 97.7162 240.124 106.684 239.75C114.656 239.377 128.607 239.501 137.45 240.124C146.418 240.622 155.885 240.747 158.625 240.373L163.608 239.75L159.248 239.003C155.013 238.38 155.013 238.38 160.244 238.256C163.608 238.131 165.351 238.505 164.853 239.252C164.479 239.875 164.978 240.498 165.974 240.498C167.095 240.498 167.842 239.75 167.593 238.878C167.469 237.757 170.583 237.384 180.174 237.259C187.149 237.259 192.879 237.508 192.879 238.006C192.879 239.626 204.961 238.256 209.32 236.263C211.812 235.017 214.801 233.896 215.797 233.771C217.79 233.522 227.755 224.554 227.506 223.184C227.257 220.942 227.88 219.074 228.627 219.696C229.623 220.693 232.737 218.202 232.737 216.458C232.737 215.711 231.865 216.209 230.869 217.579C228.129 221.316 228.627 217.828 232.613 207.49C234.606 202.258 236.599 196.279 236.972 194.037C237.595 190.425 237.595 190.55 235.851 194.909C234.855 197.65 233.858 200.016 233.609 200.141C233.485 200.265 233.36 173.984 233.36 141.723C233.236 109.338 232.862 80.4403 232.364 77.3263C231.741 73.465 231.865 72.344 232.737 73.5896C234.481 76.2053 234.232 75.2088 231.492 66.7389C229.623 60.6355 229.125 60.0127 229.001 63.0021C228.876 66.4898 228.627 66.2406 225.638 59.8882C223.894 56.1514 222.524 52.5392 222.648 51.9164C222.773 51.2936 222.15 51.2936 221.278 52.041C220.032 53.0375 218.164 52.6638 214.054 50.4217C209.32 47.806 209.071 47.4323 212.185 48.0551C214.303 48.5534 216.918 49.799 218.164 50.92C220.157 52.6638 220.282 52.6638 219.659 50.92C218.662 48.3043 207.203 44.0693 200.975 43.9447C199.605 43.9447 181.295 43.8202 160.12 43.6956C139.07 43.571 122.13 43.0728 122.503 42.5746C122.752 42.0763 122.254 41.5781 121.258 41.5781C120.261 41.5781 119.763 42.0763 120.137 42.5746ZM101.702 44.5675C99.0864 44.8166 94.8514 44.8166 92.3602 44.5675C89.7445 44.3184 91.862 44.0693 96.9689 44.0693C102.076 44.0693 104.193 44.3184 101.702 44.5675ZM191.01 47.4323C190.637 48.1797 191.633 48.6779 193.377 48.6779C194.996 48.6779 196.615 48.0551 196.865 47.3078C197.736 44.5675 205.708 48.4288 213.555 55.5286C217.79 59.2654 221.527 62.0057 222.025 61.5074C222.399 61.1338 224.267 64.1231 226.136 68.109C229.125 74.2124 229.623 77.3263 229.872 86.6682C231.492 180.834 230.994 203.504 227.755 207.49C227.008 208.362 226.883 209.358 227.257 209.732C229.623 211.974 212.061 230.533 209.196 228.789C208.573 228.415 206.829 229.163 205.21 230.408C202.096 232.775 192.879 235.142 192.879 233.522C192.879 233.024 193.875 231.405 194.996 230.035C196.242 228.54 195.494 228.914 193.377 230.782C189.017 234.768 184.907 235.764 188.27 232.028C191.509 228.415 190.761 227.793 187.274 231.031C185.032 233.149 182.54 234.021 178.554 234.021C174.818 234.145 173.199 233.771 173.697 232.9C174.07 232.152 173.074 232.526 171.206 233.647C168.216 235.64 164.479 235.764 127.112 235.017C80.9009 234.021 80.1535 234.021 74.2993 231.28C68.5696 228.54 58.1067 217.703 57.733 214.091C57.2348 209.358 57.1102 209.234 56.1138 209.856C55.6155 210.105 55.1173 209.483 54.9927 208.362C54.8682 207.241 54.2454 204.002 53.498 201.262C51.7542 194.785 49.6367 153.556 49.8858 132.132L50.135 115.317L50.8823 134L51.6297 152.684L52.0033 130.264C52.2525 117.932 52.2525 106.598 52.1279 104.978C52.0033 103.359 53.498 99.9959 55.3664 97.5048C58.4804 93.2698 58.6049 93.1452 55.7401 95.6364L52.7507 98.3767V90.4049C52.8752 84.3016 53.3735 81.8104 55.2419 79.6929C56.7366 78.0737 56.9857 77.3263 55.8646 77.9491C54.3699 78.821 54.2454 78.6965 55.491 77.0772C56.3629 76.0807 56.7366 74.9597 56.3629 74.586C55.491 73.5896 60.3487 64.2477 64.4592 58.7671C67.8222 54.4076 76.4168 49.799 82.6447 49.1762C84.7622 48.927 88.1252 48.5534 90.1182 48.3043C92.2357 48.0551 92.7339 48.0551 91.2392 48.3043C89.869 48.5534 86.1323 51.4182 83.1429 54.6567L77.6623 60.511L83.2675 55.155C86.3814 52.2901 89.9936 49.9235 91.2392 49.9235C93.6058 49.9235 93.6058 50.0481 91.2392 52.6638L88.8726 55.5286L91.9865 52.9129C95.7233 49.6744 104.069 47.4323 102.574 50.0481C101.827 51.4182 101.951 51.5428 103.321 50.1726C104.193 49.4253 107.681 48.6779 111.044 48.6779C115.528 48.6779 116.774 49.0516 116.151 50.1726C115.403 51.4182 115.653 51.4182 117.023 50.1726C117.895 49.4253 120.012 48.6779 121.881 48.5534C124.621 48.5534 124.745 48.4288 122.503 47.5569C121.133 46.9341 136.205 46.4359 155.885 46.4359C178.679 46.3113 191.509 46.685 191.01 47.4323ZM221.527 60.2618C221.527 61.0092 220.157 60.2618 218.413 58.6426C216.669 57.0233 215.299 55.155 215.299 54.5322C215.299 53.7848 216.669 54.5322 218.413 56.1514C220.157 57.7707 221.527 59.6391 221.527 60.2618Z" fill="black"/>
<path d="M80.029 52.6638L77.6624 55.5286L80.5272 53.162C83.1429 50.92 83.8903 49.9235 82.8938 49.9235C82.6447 49.9235 81.3991 51.1691 80.029 52.6638Z" fill="black"/>
<path d="M74.4239 55.7778C72.8046 57.7707 72.9292 57.8953 74.9221 56.276C76.0431 55.4041 77.0396 54.4076 77.0396 54.1585C77.0396 53.162 76.0431 53.7848 74.4239 55.7778Z" fill="black"/>
<path d="M80.6517 62.0057L76.4167 66.6143L80.4026 63.5004C83.6411 61.0092 86.6305 57.397 85.3849 57.397C85.1358 57.397 83.0183 59.5145 80.6517 62.0057Z" fill="black"/>
<path d="M199.48 61.2583C195.37 62.5039 189.142 68.8564 189.142 71.8458C189.142 72.9668 189.765 73.3405 190.388 72.9668C191.135 72.5931 191.633 73.465 191.633 75.2088C191.633 76.8281 193.003 79.4438 194.747 81.0631C196.366 82.5578 197.612 84.3016 197.238 84.6753C196.989 85.1735 198.609 85.4226 200.726 85.4226C206.829 85.1735 212.684 81.5613 213.431 77.5755C213.929 75.7071 214.427 73.2159 214.677 71.9703C215.05 69.8528 206.58 59.7636 204.463 60.0127C203.965 60.0127 201.722 60.6355 199.48 61.2583ZM209.694 67.4862C212.31 69.3546 211.812 76.3299 208.947 79.4438C207.328 80.9385 205.584 82.3087 204.836 82.3087C204.089 82.3087 204.463 81.6859 205.708 80.9385C207.701 79.6929 208.698 76.0808 206.954 76.0808C206.58 76.0808 204.961 77.0772 203.591 78.1982C202.096 79.4438 201.349 79.9421 201.847 79.3193C202.345 78.6965 202.221 77.4509 201.349 76.4544C200.352 75.2088 200.352 74.3369 201.349 73.3405C203.715 70.9739 203.093 69.3546 200.726 71.223C198.609 72.8422 198.609 72.8422 200.726 70.3511C201.847 68.9809 202.843 67.2371 202.843 66.4898C202.843 64.9951 207.452 65.7424 209.694 67.4862Z" fill="black"/>
<path d="M202.719 74.4615C201.1 76.4544 201.224 76.579 203.217 74.9597C204.338 74.0878 205.335 73.0914 205.335 72.8423C205.335 71.8458 204.338 72.4686 202.719 74.4615Z" fill="black"/>
<path d="M88.1252 64.4968C86.5059 66.4898 86.6305 66.6143 88.6234 64.9951C89.7444 64.1232 90.7409 63.1267 90.7409 62.8776C90.7409 61.8811 89.7444 62.5039 88.1252 64.4968Z" fill="black"/>
<path d="M71.3098 71.3475L68.9432 74.2124L71.8081 71.8458C74.4238 69.6037 75.1711 68.6073 74.1747 68.6073C73.9256 68.6073 72.68 69.8528 71.3098 71.3475Z" fill="black"/>
<path d="M80.6518 71.9703C79.0325 73.9633 79.1571 74.0878 81.15 72.4686C82.271 71.5967 83.2675 70.6002 83.2675 70.3511C83.2675 69.3546 82.271 69.9774 80.6518 71.9703Z" fill="black"/>
<path d="M132.717 74.9597C131.596 75.7071 129.603 76.0808 128.357 75.9562C124.247 75.3334 101.951 83.3051 101.951 85.4226C101.951 85.7963 102.699 85.7963 103.446 85.2981C104.318 84.6753 102.823 86.5437 100.083 89.1594C97.3425 91.8997 94.7268 94.0171 94.2285 93.8926C93.7303 93.6435 92.2356 95.1382 90.8655 97.0065C89.3708 98.8749 87.7515 100.992 87.1287 101.74C86.5059 102.487 84.1393 106.722 81.8973 111.082C79.6552 115.441 77.4132 119.302 77.0395 119.676C76.6658 120.05 76.1676 127.523 75.9185 136.492C75.6694 151.189 75.9185 153.681 78.9079 163.272C80.7763 169.126 83.1429 174.98 84.0148 176.35C85.0112 177.72 85.7586 179.838 85.7586 181.083C85.7586 182.329 87.1287 184.696 88.8725 186.439C90.4918 188.059 91.9865 189.802 91.9865 190.052C91.9865 190.425 91.9865 191.048 91.9865 191.546C91.9865 192.169 93.6058 193.664 95.4741 194.909L98.8372 197.276L95.7232 193.788L92.6093 190.176L96.2215 192.418C98.2144 193.664 102.2 196.529 105.19 198.771C111.667 203.753 131.596 210.604 139.319 210.604C142.433 210.604 147.166 209.732 149.906 208.735C155.262 206.867 160.369 206.244 156.134 208.113C154.764 208.735 154.39 209.234 155.262 209.234C156.259 209.358 158.501 208.611 160.244 207.614C162.113 206.742 166.348 205.248 169.586 204.5C186.402 200.514 204.961 172.613 207.203 147.577C208.199 137.488 206.206 124.285 203.342 120.797C202.345 119.801 201.598 117.808 201.598 116.438C201.598 111.58 195.494 101.242 188.519 94.3908C184.533 90.5295 181.046 87.291 180.797 87.291C179.426 87.291 174.693 82.8069 174.693 81.6859C174.818 80.4403 167.842 78.3228 163.358 78.3228C161.615 78.3228 160.867 77.8246 161.365 76.9527C161.864 76.0808 161.365 75.9562 159.871 76.579C158.625 77.0772 155.013 76.9527 151.899 76.579C146.917 75.7071 146.543 75.5825 149.283 74.7106C151.525 74.0878 150.404 73.8387 145.297 73.7142C141.436 73.5896 137.824 74.0878 137.45 74.8352C137.077 75.458 136.08 76.0808 135.457 76.0808C134.71 76.0808 134.585 75.458 134.959 74.8352C135.956 73.3405 135.582 73.3405 132.717 74.9597ZM160.12 81.8104C162.362 82.6823 164.479 82.9315 164.853 82.3087C165.227 81.8104 164.729 80.9385 163.981 80.6894C162.86 80.1912 162.985 79.9421 164.23 79.9421C168.341 79.6929 185.779 92.0242 184.409 94.2663C183.786 95.3873 188.27 100.992 189.765 100.992C190.637 100.992 192.131 101.989 193.003 103.11C194.622 105.103 194.498 105.227 192.505 103.608C190.512 101.989 190.512 102.238 192.63 107.345C194 110.459 195.494 114.818 195.993 117.185C196.615 119.552 197.238 120.797 197.612 119.925C197.986 118.68 198.608 118.929 199.854 120.548C202.345 123.787 202.096 127.025 199.605 123.911C197.736 121.545 197.612 121.545 198.484 124.036C198.982 125.406 199.729 129.018 199.978 131.883C200.352 134.872 201.1 136.741 201.473 136.118C201.847 135.495 202.345 138.858 202.345 143.84C202.47 149.446 202.221 151.812 201.473 150.193C200.601 148.2 200.477 148.325 200.601 151.439C200.726 153.431 199.605 157.916 198.11 161.279C196.615 164.642 195.37 168.005 195.37 168.877C195.37 169.749 194.498 170.745 193.501 171.243C192.505 171.617 191.633 172.489 191.633 173.236C191.633 173.984 192.38 174.233 193.252 173.859C194 173.485 193.501 174.108 192.007 175.229C190.387 176.35 189.142 177.845 189.142 178.468C189.142 179.215 190.138 178.966 191.384 178.094C193.252 176.724 193.252 176.724 191.882 178.219C191.01 179.215 189.64 180.087 188.768 180.087C188.021 180.087 186.651 181.457 185.779 183.201C185.031 184.945 182.914 187.685 181.17 189.304C178.679 191.671 177.683 191.92 175.191 190.674C172.576 189.429 172.576 189.429 174.569 191.048C176.312 192.543 176.437 193.166 175.191 193.913C174.319 194.411 172.327 195.657 170.832 196.653C167.22 198.895 167.095 197.774 170.707 194.411C175.316 190.176 171.455 191.671 164.479 196.902C160.867 199.643 156.632 201.885 155.013 201.885C153.269 201.885 151.774 202.383 151.525 203.006C150.529 205.87 125.244 203.878 119.389 200.39C118.144 199.767 118.767 199.643 121.009 200.141C126.614 201.386 123.873 197.65 117.77 195.906C114.905 195.034 111.667 194.037 110.67 193.664C109.674 193.29 110.421 193.913 112.289 195.034C114.282 196.155 115.653 197.4 115.279 197.65C114.656 198.272 107.307 194.162 107.183 193.166C106.933 190.674 103.695 185.692 102.325 185.692C99.46 185.692 90.6164 176.724 87.627 170.745C82.1464 160.033 80.4026 151.314 81.0254 139.107C82.271 118.057 91.6128 99.3732 103.82 93.6435C107.058 92.1488 109.923 89.7822 110.297 88.412C110.919 86.2945 112.165 85.5472 114.781 85.9209C115.279 85.9209 115.653 85.5472 115.653 85.049C115.653 83.056 122.503 80.6894 129.977 80.1912C134.087 79.8175 137.575 79.4438 137.699 79.3193C138.571 78.4474 156.881 80.4403 160.12 81.8104ZM108.802 89.7822C108.428 90.405 107.432 91.0278 106.809 91.0278C106.062 91.0278 105.937 90.405 106.311 89.7822C106.684 89.0348 107.681 88.5366 108.304 88.5366C109.051 88.5366 109.176 89.0348 108.802 89.7822ZM94.4777 95.2627C94.4777 95.5118 93.4812 96.5083 92.3602 97.3802C90.3672 98.9995 90.2427 98.8749 91.8619 96.882C93.4812 94.8891 94.4777 94.2663 94.4777 95.2627ZM197.612 114.818C197.238 115.815 196.74 115.192 196.242 113.573C195.744 111.455 195.868 110.957 196.865 111.954C197.487 112.576 197.861 113.946 197.612 114.818ZM202.47 132.381C202.096 133.378 201.722 133.004 201.722 131.634C201.598 130.264 201.971 129.516 202.345 130.014C202.719 130.388 202.843 131.509 202.47 132.381ZM80.4026 157.293C80.0289 158.289 79.6552 157.916 79.6552 156.545C79.5307 155.175 79.9043 154.428 80.278 154.926C80.6517 155.3 80.7763 156.421 80.4026 157.293ZM88.748 176.475C89.1217 177.471 88.9971 177.969 88.2497 177.596C87.5024 177.222 87.0042 176.35 87.0042 175.603C87.0042 173.859 87.8761 174.233 88.748 176.475ZM185.281 192.667C183.661 194.411 181.17 196.404 179.8 197.151C178.43 197.899 179.551 196.155 182.167 193.29C184.907 190.55 187.398 188.557 187.772 188.806C188.021 189.18 187.024 190.923 185.281 192.667ZM176.063 199.393C175.69 200.016 174.569 200.639 173.821 200.639C172.949 200.639 173.074 200.141 174.195 199.393C176.562 197.899 177.06 197.899 176.063 199.393Z" fill="black"/>
<path d="M165.476 83.4297C165.476 84.177 166.099 85.0489 166.721 85.4226C167.469 85.9209 167.593 86.7928 167.22 87.5401C166.721 88.412 166.971 88.5366 167.842 88.0383C168.59 87.5401 168.963 86.5436 168.59 85.9209C167.095 83.5542 170.334 84.9244 176.686 89.1594C180.298 91.6505 182.54 92.647 181.544 91.526C179.925 89.533 168.092 82.3087 166.472 82.3087C165.85 82.3087 165.476 82.8069 165.476 83.4297Z" fill="black"/>
<path d="M147.789 90.6541C149.283 90.9032 151.775 90.9032 153.394 90.6541C154.889 90.405 153.643 90.1559 150.529 90.1559C147.415 90.1559 146.17 90.405 147.789 90.6541Z" fill="black"/>
<path d="M136.205 92.5224C133.464 93.1452 130.35 94.0171 129.354 94.3908C128.358 94.8891 126.987 95.0136 126.365 94.8891C125.742 94.7645 124.123 95.6364 122.752 96.882C120.884 98.5012 120.51 98.6258 121.133 97.2557C121.631 96.2592 121.258 96.3838 120.137 97.7539C119.14 98.9995 117.77 99.6223 117.147 99.2486C114.781 97.8785 103.82 109.338 99.8337 117.434C97.5917 121.918 95.7233 126.527 95.7233 127.648C95.7233 128.893 95.1005 130.886 94.3531 132.257C93.7304 133.627 92.8584 137.613 92.6093 141.225C92.4848 144.837 91.9865 149.321 91.6129 151.438C91.3637 153.431 91.3637 154.303 91.6129 153.307C92.8584 149.321 94.4777 149.196 94.4777 153.058C94.4777 155.3 95.1005 157.044 95.7233 157.044C96.4706 157.044 96.9689 158.414 96.9689 160.033C96.9689 164.517 99.46 170.496 101.702 171.368C103.446 171.991 103.446 171.866 101.578 169.749C100.456 168.503 99.46 166.884 99.46 166.261C99.46 165.638 100.581 166.51 101.827 168.129C103.072 169.873 103.944 171.866 103.695 172.613C103.321 173.361 104.193 175.105 105.688 176.35C107.058 177.596 108.179 178.094 108.179 177.471C108.179 176.848 108.926 177.596 109.923 178.841C110.919 180.211 115.279 184.073 119.514 187.436C125.244 191.671 126.115 192.044 122.628 188.931C119.888 186.439 118.019 184.197 118.268 183.948C119.265 182.827 130.6 188.806 130.6 190.301C130.6 191.297 132.343 191.92 134.835 191.92C137.201 191.92 140.191 192.294 141.436 192.667C143.429 193.415 143.429 193.29 141.187 191.422C138.82 189.429 138.82 189.429 142.433 189.678C144.55 189.927 146.543 190.55 146.917 191.048C147.789 192.169 154.266 189.553 154.266 188.059C154.266 187.436 155.138 187.311 156.134 187.685C157.13 188.183 160.12 187.436 162.736 186.19C165.227 184.945 167.843 184.073 168.341 184.197C168.964 184.322 169.088 184.073 168.714 183.45C168.341 182.827 169.462 180.959 171.33 179.34C174.32 176.599 174.444 176.599 173.697 178.841C172.576 181.831 179.676 174.108 182.291 169.375C184.16 165.763 187.772 151.189 188.021 146.082C188.145 142.719 188.145 142.719 189.017 145.709C189.765 148.574 189.889 148.574 191.633 146.332C192.63 145.086 192.879 144.463 192.131 144.961C190.388 145.958 187.149 130.637 188.644 128.271C189.142 127.274 189.017 127.025 188.145 127.648C187.274 128.146 186.526 128.146 186.526 127.523C186.402 127.025 186.153 125.406 186.028 124.036C185.779 121.171 177.932 108.59 174.942 106.099C173.946 105.227 172.451 104.854 171.704 105.352C170.956 105.85 170.583 105.477 170.707 104.729C170.956 103.857 170.209 102.736 169.213 102.113C167.22 100.868 157.878 97.0065 156.757 96.882C156.383 96.882 155.636 96.1346 154.888 95.3873C153.892 94.1417 142.931 90.6541 141.561 91.1523C141.312 91.2769 138.945 91.7751 136.205 92.5224ZM153.02 96.0101C153.02 96.6329 152.148 96.882 151.152 96.5083C150.155 96.0101 149.283 95.5118 149.283 95.2627C149.283 95.0136 150.155 94.7645 151.152 94.7645C152.148 94.7645 153.02 95.2627 153.02 96.0101ZM116.774 101.242C116.525 101.491 114.282 103.234 111.916 105.352L107.556 109.089L111.791 104.48C114.158 101.864 116.4 99.9959 116.649 100.37C117.023 100.743 117.023 101.117 116.774 101.242ZM150.529 100.992C153.02 101.74 153.145 101.989 151.152 101.989C149.782 101.989 147.54 101.615 146.169 100.992C143.055 99.6223 146.294 99.6223 150.529 100.992ZM163.109 102.238C165.85 103.733 167.843 105.227 167.469 105.726C166.846 106.722 169.337 110.459 170.832 110.708C171.33 110.833 171.579 111.206 171.455 111.331C171.206 111.58 171.828 112.825 172.825 114.196C174.818 116.936 167.22 108.964 163.981 104.978C161.864 102.363 157.13 100.992 158.625 103.484C158.999 104.106 158.874 104.729 158.127 104.729C157.504 104.729 157.006 103.608 157.13 102.238C157.38 99.2486 157.006 99.2486 163.109 102.238ZM140.564 103.982C140.564 104.231 139.692 104.854 138.571 105.227C137.575 105.601 137.077 105.477 137.45 104.729C138.198 103.484 140.564 102.985 140.564 103.982ZM175.565 109.338C177.184 111.331 177.06 111.455 175.191 109.836C173.074 108.217 172.451 107.22 173.448 107.22C173.697 107.22 174.693 108.217 175.565 109.338ZM125.617 108.84C125.617 109.089 124.372 110.334 122.877 111.704L120.012 114.071L122.379 111.206C124.621 108.59 125.617 107.843 125.617 108.84ZM151.152 109.711C151.525 110.334 151.027 110.957 149.906 110.957C148.785 110.957 148.287 110.334 148.661 109.711C149.034 108.964 149.657 108.466 149.906 108.466C150.155 108.466 150.778 108.964 151.152 109.711ZM129.354 112.576C129.354 112.825 127.486 114.569 125.368 116.687L121.258 120.299L124.87 116.189C128.358 112.452 129.354 111.58 129.354 112.576ZM157.13 113.448C158.002 113.448 158.002 113.946 157.006 114.943C155.76 116.189 155.138 116.189 154.39 114.818C153.767 113.822 152.646 113.573 151.774 114.071C150.653 114.818 150.404 114.569 151.027 113.573C151.65 112.701 152.896 112.327 153.892 112.701C154.888 113.075 156.383 113.448 157.13 113.448ZM166.721 114.694C168.341 116.064 169.213 117.185 168.839 117.185C167.095 117.185 161.739 114.196 161.739 113.199C161.739 111.455 163.732 112.078 166.721 114.694ZM161.739 116.687C161.739 117.932 157.629 120.797 155.885 120.922C154.764 120.922 155.013 120.05 156.508 118.555C158.625 116.189 161.739 115.192 161.739 116.687ZM172.7 119.053C172.327 119.427 171.579 118.804 171.206 117.559C170.458 115.815 170.583 115.69 171.828 116.811C172.7 117.683 173.074 118.68 172.7 119.053ZM134.336 118.306C134.336 118.929 131.97 121.295 129.105 123.537L123.749 127.648L128.731 122.416C133.963 116.811 134.336 116.562 134.336 118.306ZM146.792 117.683C146.792 118.057 146.294 118.68 145.547 119.053C144.924 119.427 144.301 119.178 144.301 118.555C144.301 117.808 144.924 117.185 145.547 117.185C146.294 117.185 146.792 117.434 146.792 117.683ZM167.967 120.922C168.714 122.292 169.088 123.413 168.839 123.413C168.59 123.413 167.344 122.292 166.099 120.922C164.853 119.552 164.479 118.431 165.227 118.431C165.974 118.431 167.22 119.552 167.967 120.922ZM142.682 126.527C131.347 137.363 125.617 142.221 125.617 141.1C125.617 140.353 128.482 137.114 131.845 133.876C135.333 130.637 137.824 127.648 137.45 127.274C137.077 127.025 134.71 128.769 132.094 131.26C127.112 136.118 123.624 137.737 127.61 133.253C128.856 131.758 129.852 129.641 129.603 128.52C129.479 127.274 130.973 125.281 133.34 123.537L137.45 120.797L133.963 123.911C131.97 125.779 130.6 127.772 130.849 128.52C131.098 129.267 133.838 127.648 136.828 124.908C141.685 120.548 142.557 120.174 143.803 122.043C145.048 123.662 144.799 124.534 142.682 126.527ZM149.906 120.922C149.532 121.545 148.661 122.167 147.913 122.167C147.29 122.167 146.792 121.545 146.792 120.922C146.792 120.174 147.664 119.676 148.785 119.676C149.782 119.676 150.28 120.174 149.906 120.922ZM153.269 124.036C153.269 124.658 152.646 125.406 151.899 125.655C151.152 125.904 150.529 125.157 150.529 124.036C150.529 122.915 151.152 122.167 151.899 122.416C152.646 122.666 153.269 123.413 153.269 124.036ZM162.487 124.908L164.853 127.523L161.49 125.281C157.878 123.039 157.255 122.167 158.999 122.167C159.622 122.167 161.116 123.413 162.487 124.908ZM177.184 125.406C177.807 127.15 177.683 127.274 176.063 125.904C173.946 124.16 173.697 123.413 175.316 123.413C175.939 123.413 176.811 124.285 177.184 125.406ZM145.796 130.637C143.554 132.506 141.81 134.872 141.81 135.744C141.81 136.741 141.436 137.239 141.062 136.741C140.564 136.367 137.824 137.986 134.71 140.477C131.721 142.969 129.105 144.712 128.731 144.463C128.108 143.716 140.44 130.886 141.685 130.886C142.308 130.886 143.927 129.765 145.547 128.395C147.166 127.025 148.785 126.153 149.159 126.527C149.532 126.901 148.038 128.769 145.796 130.637ZM155.138 128.644C154.764 129.641 154.39 129.267 154.39 127.897C154.266 126.527 154.639 125.779 155.013 126.278C155.387 126.651 155.511 127.772 155.138 128.644ZM159.123 131.634C157.006 134.249 155.262 133.751 156.757 130.886C157.504 129.516 158.625 128.644 159.373 129.143C160.12 129.641 160.12 130.513 159.123 131.634ZM151.774 131.385C151.774 131.758 151.276 132.381 150.529 132.755C149.906 133.128 149.283 132.879 149.283 132.257C149.283 131.509 149.906 130.886 150.529 130.886C151.276 130.886 151.774 131.135 151.774 131.385ZM162.487 135.495C161.241 136.741 160.12 134.872 161.241 133.253C161.988 131.883 162.237 131.883 162.736 133.253C162.985 134.125 162.86 135.121 162.487 135.495ZM146.917 135.744C145.297 138.609 135.582 146.456 135.582 144.837C135.582 143.591 146.169 133.378 147.415 133.378C147.789 133.378 147.54 134.499 146.917 135.744ZM154.266 134.623C154.266 135.246 153.767 135.869 153.02 135.869C152.397 135.869 151.774 135.246 151.774 134.623C151.774 133.876 152.397 133.378 153.02 133.378C153.767 133.378 154.266 133.876 154.266 134.623ZM147.041 141.848C140.44 148.2 136.703 151.065 136.08 150.442C135.208 149.57 149.782 135.993 150.778 136.616C151.401 136.99 149.657 139.356 147.041 141.848ZM157.38 138.36C157.753 138.983 157.504 139.605 156.881 139.605C156.134 139.605 155.511 138.983 155.511 138.36C155.511 137.613 155.76 137.114 156.009 137.114C156.383 137.114 157.006 137.613 157.38 138.36ZM169.213 139.605C169.213 140.228 168.714 140.851 167.967 140.851C167.344 140.851 166.721 140.228 166.721 139.605C166.721 138.858 167.344 138.36 167.967 138.36C168.714 138.36 169.213 138.858 169.213 139.605ZM154.266 142.097C154.266 142.719 152.896 144.214 151.027 145.46C149.283 146.705 146.294 149.321 144.176 151.314C142.184 153.307 140.191 154.552 139.817 154.179C139.443 153.93 141.436 151.438 144.176 148.947C146.917 146.332 148.785 143.591 148.411 142.969C148.038 142.221 148.287 142.097 149.034 142.595C149.782 142.969 150.653 142.844 151.152 142.097C152.148 140.477 154.266 140.477 154.266 142.097ZM158.625 144.588C156.508 146.83 156.508 147.079 158.376 146.332C160.743 145.46 160.867 145.833 159.746 148.823C158.625 151.688 157.13 151.314 156.383 148.075C155.885 146.332 156.383 144.588 157.753 143.218C160.743 140.353 161.365 141.474 158.625 144.588ZM178.804 146.082C178.43 147.079 178.056 146.705 178.056 145.335C177.932 143.965 178.305 143.218 178.679 143.716C179.053 144.09 179.177 145.211 178.804 146.082ZM127.486 147.079C127.112 147.702 126.115 148.325 125.493 148.325C124.745 148.325 124.621 147.702 124.994 147.079C125.368 146.332 126.365 145.833 126.987 145.833C127.735 145.833 127.859 146.332 127.486 147.079ZM152.273 149.695C150.529 151.688 150.404 152.56 151.401 152.933C152.646 153.307 152.646 154.179 151.65 155.923C151.027 157.293 149.906 158.04 149.159 157.542C148.411 157.044 148.536 156.047 149.532 154.802C150.903 153.182 150.778 152.933 149.034 153.681C145.796 154.802 146.294 153.182 150.28 149.446C154.266 145.584 155.76 145.833 152.273 149.695ZM130.6 151.438C129.728 152.56 128.731 153.058 128.482 152.809C127.61 151.937 129.354 149.57 130.849 149.57C131.596 149.57 131.596 150.317 130.6 151.438ZM134.336 153.307C134.336 153.93 133.838 154.552 133.091 154.552C132.468 154.552 131.845 153.93 131.845 153.307C131.845 152.56 132.468 152.061 133.091 152.061C133.838 152.061 134.336 152.56 134.336 153.307ZM108.179 160.531C108.179 162.4 107.93 162.4 106.934 160.78C105.314 158.289 105.314 156.67 106.934 157.666C107.681 158.04 108.179 159.41 108.179 160.531ZM120.012 160.78C120.386 161.403 120.137 162.026 119.514 162.026C118.767 162.026 118.144 161.403 118.144 160.78C118.144 160.033 118.393 159.535 118.642 159.535C119.016 159.535 119.638 160.033 120.012 160.78ZM105.563 167.008C106.934 169.998 106.934 169.998 105.19 167.756C104.069 166.385 103.197 164.766 103.197 164.019C103.197 162.524 103.82 163.147 105.563 167.008ZM124.994 164.642C126.365 166.635 125.119 167.008 123.375 165.015C122.503 164.019 122.379 163.272 123.002 163.272C123.624 163.272 124.621 163.894 124.994 164.642ZM178.679 171.741C176.437 173.734 176.437 173.734 177.932 170.994C178.679 169.375 179.676 168.378 180.174 168.752C180.547 169.25 179.925 170.496 178.679 171.741ZM122.503 170.745C122.877 171.492 122.379 171.617 121.382 171.243C119.14 170.371 118.767 169.499 120.51 169.499C121.258 169.499 122.13 169.998 122.503 170.745ZM133.091 174.482C133.091 175.105 132.593 175.727 131.845 175.727C131.222 175.727 130.6 175.105 130.6 174.482C130.6 173.734 131.222 173.236 131.845 173.236C132.593 173.236 133.091 173.734 133.091 174.482ZM126.863 183.325C126.863 184.073 126.365 184.197 125.617 183.824C124.994 183.45 124.372 182.453 124.372 181.831C124.372 181.083 124.994 180.959 125.617 181.332C126.365 181.706 126.863 182.703 126.863 183.325ZM135.582 189.429C135.582 190.052 135.084 190.674 134.461 190.674C133.714 190.674 132.842 190.052 132.468 189.429C132.094 188.681 132.593 188.183 133.589 188.183C134.71 188.183 135.582 188.681 135.582 189.429Z" fill="black"/>
<path d="M139.817 123.911C138.571 124.908 137.949 126.153 138.447 126.651C138.945 127.15 140.315 126.651 141.436 125.53C144.176 122.915 142.931 121.669 139.817 123.911Z" fill="black"/>
<path d="M189.266 131.634C189.266 133.004 189.64 133.378 190.014 132.381C190.388 131.509 190.263 130.388 189.889 130.014C189.516 129.516 189.142 130.264 189.266 131.634Z" fill="black"/>
<path d="M90.1182 159.659C91.3637 164.019 92.983 165.264 92.3602 161.528C91.9865 159.659 91.1146 157.916 90.4918 157.542C89.7445 157.044 89.6199 157.791 90.1182 159.659Z" fill="black"/>
<path d="M180.298 184.073C178.679 186.066 178.804 186.19 180.797 184.571C181.918 183.699 182.914 182.703 182.914 182.454C182.914 181.457 181.918 182.08 180.298 184.073Z" fill="black"/>
<path d="M131.596 200.265C132.468 200.639 133.589 200.514 133.963 200.141C134.461 199.767 133.714 199.393 132.343 199.518C130.973 199.518 130.6 199.892 131.596 200.265Z" fill="black"/>
<path d="M136.578 201.511C137.326 201.76 138.82 201.76 139.692 201.511C140.44 201.137 139.817 200.888 138.073 200.888C136.329 200.888 135.707 201.137 136.578 201.511Z" fill="black"/>
<path d="M155.262 75.7071C156.134 76.0807 157.255 75.9562 157.629 75.5825C158.127 75.2088 157.38 74.8352 156.009 74.9597C154.639 74.9597 154.266 75.3334 155.262 75.7071Z" fill="black"/>
<path d="M61.968 80.6894L58.9786 84.177L62.4663 81.1876C65.5802 78.3228 66.4521 77.3263 65.4557 77.3263C65.2065 77.3263 63.7119 78.821 61.968 80.6894Z" fill="black"/>
<path d="M64.4593 86.9173C62.84 88.9103 62.9646 89.0348 64.9575 87.4156C66.0785 86.5437 67.075 85.5472 67.075 85.2981C67.075 84.3016 66.0785 84.9244 64.4593 86.9173Z" fill="black"/>
<path d="M54.6191 87.4156C54.6191 88.0384 55.2419 88.2875 55.8647 87.9138C56.6121 87.5401 57.1103 86.9173 57.1103 86.5437C57.1103 86.2945 56.6121 86.0454 55.8647 86.0454C55.2419 86.0454 54.6191 86.6682 54.6191 87.4156Z" fill="black"/>
<path d="M54.4944 93.1452C52.8752 95.1382 52.9997 95.2627 54.9927 93.6435C56.1137 92.7716 57.1102 91.7751 57.1102 91.526C57.1102 90.5295 56.1137 91.1523 54.4944 93.1452Z" fill="black"/>
<path d="M52.3771 163.894C52.3771 165.887 52.6262 166.635 52.9999 165.389C53.249 164.268 53.249 162.524 52.9999 161.652C52.6262 160.905 52.3771 161.777 52.3771 163.894Z" fill="black"/>
<path d="M229.374 169.499C229.374 173.984 229.623 175.727 229.873 173.485C230.122 171.368 230.122 167.631 229.873 165.389C229.623 163.272 229.374 165.015 229.374 169.499Z" fill="black"/>
<path d="M202.345 176.599C201.598 178.343 201.722 178.468 202.968 177.347C203.84 176.475 204.214 175.478 203.84 175.105C203.466 174.731 202.719 175.354 202.345 176.599Z" fill="black"/>
<path d="M226.011 195.283C225.264 197.027 225.388 197.151 226.634 196.03C227.506 195.158 227.88 194.162 227.506 193.788C227.132 193.415 226.385 194.037 226.011 195.283Z" fill="black"/>
<path d="M205.957 196.902C205.584 197.525 205.833 198.148 206.456 198.148C207.203 198.148 207.826 197.525 207.826 196.902C207.826 196.155 207.577 195.657 207.327 195.657C206.954 195.657 206.331 196.155 205.957 196.902Z" fill="black"/>
<path d="M221.901 204.999C220.78 207.988 222.025 208.362 223.769 205.621C224.766 204.002 224.766 203.13 224.018 203.13C223.271 203.13 222.399 204.002 221.901 204.999Z" fill="black"/>
<path d="M221.776 213.219C220.157 215.212 218.413 216.582 217.79 216.209C217.168 215.835 216.42 216.084 216.047 216.707C214.801 218.7 218.413 217.579 221.652 214.963C225.139 212.223 227.132 209.358 225.638 209.483C225.139 209.483 223.396 211.102 221.776 213.219Z" fill="black"/>
<path d="M200.228 212.721C198.608 214.714 198.733 214.839 200.726 213.219C202.719 211.6 203.342 210.604 202.345 210.604C202.096 210.604 201.099 211.6 200.228 212.721Z" fill="black"/>
<path d="M215.798 213.344L213.431 216.209L216.296 213.842C218.911 211.6 219.659 210.604 218.662 210.604C218.413 210.604 217.168 211.849 215.798 213.344Z" fill="black"/>
<path d="M210.691 213.967C210.691 215.088 211.189 215.212 212.434 214.216C213.306 213.468 214.054 212.721 214.054 212.472C214.054 212.347 213.306 212.223 212.434 212.223C211.438 212.223 210.691 212.97 210.691 213.967Z" fill="black"/>
<path d="M203.591 215.212C202.844 216.956 202.968 217.081 204.214 215.96C205.086 215.088 205.459 214.091 205.086 213.718C204.712 213.344 203.965 213.967 203.591 215.212Z" fill="black"/>
<path d="M60.5978 217.703C61.968 219.696 64.7083 222.561 66.5766 224.305C68.5696 226.049 67.6977 224.554 64.5837 220.817C58.854 213.842 56.612 212.098 60.5978 217.703Z" fill="black"/>
<path d="M198.359 219.447C195.993 222.188 195.993 222.188 198.858 220.444C200.352 219.447 201.598 218.326 201.598 217.828C201.598 216.333 200.851 216.707 198.359 219.447Z" fill="black"/>
<path d="M207.327 217.703C206.829 218.326 205.833 218.7 205.085 218.7C204.338 218.7 203.591 219.696 203.342 221.067C203.092 223.059 203.342 223.059 206.082 220.444C207.701 218.949 209.071 217.454 209.071 217.205C209.071 216.582 208.324 216.832 207.327 217.703Z" fill="black"/>
<path d="M192.131 220.817L189.765 223.682L192.63 221.316C194.124 219.946 195.37 218.7 195.37 218.451C195.37 217.454 194.373 218.202 192.131 220.817Z" fill="black"/>
<path d="M207.826 221.191C206.207 222.935 205.459 224.305 206.082 224.305C207.078 224.18 212.31 218.077 211.189 218.077C210.94 218.077 209.445 219.447 207.826 221.191Z" fill="black"/>
<path d="M218.289 220.817L215.922 223.682L218.787 221.316C220.282 219.946 221.527 218.7 221.527 218.451C221.527 217.454 220.531 218.202 218.289 220.817Z" fill="black"/>
<path d="M213.306 222.063L210.94 224.928L213.804 222.561C216.42 220.319 217.167 219.323 216.171 219.323C215.922 219.323 214.676 220.568 213.306 222.063Z" fill="black"/>
<path d="M179.177 224.928C177.558 226.672 176.811 228.042 177.434 228.042C178.43 227.917 183.661 221.814 182.54 221.814C182.291 221.814 180.797 223.184 179.177 224.928Z" fill="black"/>
<path d="M187.398 225.177C186.651 226.921 186.775 227.045 188.021 225.924C188.893 225.052 189.267 224.056 188.893 223.682C188.519 223.309 187.772 223.931 187.398 225.177Z" fill="black"/>
<path d="M192.879 224.305C192.879 224.928 193.502 225.551 194.249 225.551C194.872 225.551 195.121 224.928 194.747 224.305C194.373 223.558 193.751 223.059 193.377 223.059C193.128 223.059 192.879 223.558 192.879 224.305Z" fill="black"/>
<path d="M201.847 228.042C197.861 231.779 198.484 232.277 202.844 229.038C204.961 227.544 206.58 226.173 206.58 225.924C206.58 224.803 204.214 225.8 201.847 228.042Z" fill="black"/>
<path d="M182.789 230.159C181.17 232.152 181.295 232.277 183.288 230.658C185.281 229.038 185.903 228.042 184.907 228.042C184.658 228.042 183.661 229.038 182.789 230.159Z" fill="black"/>
<path d="M134.087 232.65C134.959 233.024 136.08 232.9 136.454 232.526C136.952 232.152 136.205 231.779 134.835 231.903C133.464 231.903 133.091 232.277 134.087 232.65Z" fill="black"/>
<path d="M112.912 233.896C115.154 234.145 118.518 234.145 120.386 233.896C122.254 233.647 120.386 233.398 116.275 233.398C112.165 233.398 110.67 233.647 112.912 233.896Z" fill="black"/>
<path d="M226.51 54.2831C226.51 54.9059 227.132 56.4006 227.755 57.397C228.378 58.3935 229.001 58.6426 229.001 58.0198C229.001 57.2725 228.378 55.9023 227.755 54.9059C227.132 53.9094 226.51 53.5357 226.51 54.2831Z" fill="black"/>
<path d="M38.551 71.8458C38.551 73.2159 38.9247 73.5896 39.2984 72.5931C39.6721 71.7212 39.5475 70.6002 39.1738 70.2265C38.8002 69.7283 38.4265 70.4756 38.551 71.8458Z" fill="black"/>
<path d="M134.087 251.334C135.582 251.583 137.824 251.583 139.07 251.334C140.191 250.961 138.945 250.711 136.205 250.836C133.464 250.836 132.468 251.085 134.087 251.334Z" fill="black"/>
<path d="M22.2339 100.37C21.362 101.491 20.8638 102.612 21.2375 102.861C21.6111 103.234 22.6076 102.736 23.4795 101.615C24.3514 100.494 24.8497 99.3732 24.476 99.124C24.1023 98.7504 23.1058 99.2486 22.2339 100.37Z" fill="black"/>
<path d="M75.5448 3.46334C76.2922 3.71246 77.7869 3.71246 78.6588 3.46334C79.4061 3.08966 78.7834 2.84055 77.0395 2.84055C75.2957 2.84055 74.6729 3.08966 75.5448 3.46334Z" fill="black"/>
<path d="M6.29041 92.2733C6.29041 94.0171 6.53952 94.6399 6.9132 93.768C7.16231 93.0207 7.16231 91.526 6.9132 90.6541C6.53952 89.9067 6.29041 90.5295 6.29041 92.2733Z" fill="black"/>
<path d="M8.65712 200.141C8.65712 201.511 9.0308 201.885 9.40447 200.888C9.77815 200.016 9.65359 198.895 9.27991 198.522C8.90624 198.023 8.53256 198.771 8.65712 200.141Z" fill="black"/>
<path d="M273.842 205.497C273.842 206.12 274.464 207.116 275.087 207.49C275.835 207.863 276.333 207.739 276.333 206.991C276.333 206.369 275.835 205.372 275.087 204.999C274.464 204.625 273.842 204.749 273.842 205.497Z" fill="black"/>
<path d="M278.699 221.44C277.08 223.433 277.205 223.558 279.198 221.938C281.191 220.319 281.813 219.323 280.817 219.323C280.568 219.323 279.571 220.319 278.699 221.44Z" fill="black"/>
<path d="M3.05191 237.135C3.42559 238.38 4.17294 239.003 4.54661 238.629C4.92029 238.256 4.54661 237.259 3.67471 236.387C2.42912 235.266 2.30456 235.391 3.05191 237.135Z" fill="black"/>
<path d="M254.037 260.427C252.542 262.544 251.795 264.164 252.418 264.164C254.286 264.164 259.144 258.185 257.898 257.438C257.275 257.064 255.532 258.434 254.037 260.427Z" fill="black"/>
</svg>
